<svg width="247" height="251" viewBox="0 0 247 251" fill="none" xmlns="http://www.w3.org/2000/svg">
<path fill-rule="evenodd" clip-rule="evenodd" d="M21.2806 154.241C20.6341 154.161 20.0003 153.931 19.3707 153.749C18.4095 153.468 17.4672 153.14 16.5398 152.766C14.6257 151.999 12.7686 151.092 11.0278 149.983C8.21581 148.189 5.7313 145.889 3.85736 143.12L3.72871 142.927C2.65888 141.297 0.685473 137.677 2.89821 136.44C1.47209 135.247 0.124198 133.106 0.200255 131.454C0.308001 129.116 3.17279 129.148 4.65378 130.139C5.62349 130.788 6.35026 131.697 7.07913 132.591C7.88617 133.584 8.74814 134.531 9.64392 135.442C9.88159 135.683 10.1216 135.919 10.3659 136.151L10.6115 136.382C10.5735 136.292 10.5397 136.199 10.5101 136.103C10.0157 134.563 10.6052 132.557 12.1453 131.851C13.0878 131.419 14.0667 131.683 14.98 132.05L15.12 132.107C16.3496 132.616 17.5939 133.066 18.8742 133.428C24.0925 134.901 29.539 135.146 34.8862 135.882C36.946 136.167 39.0439 136.526 41.0932 137.054C41.8749 133.734 43.7911 130.551 45.8699 127.933C55.8249 115.406 72.2425 111.266 87.2615 108.586C88.6305 108.343 89.7651 110.156 90.5616 109.727C92.0721 108.915 93.401 107.766 94.5672 106.517C97.0538 103.851 98.8179 100.717 100.89 97.7476C101.915 96.2809 104.273 97.5934 103.322 99.1679L102.856 99.9374C100.939 103.089 98.8152 106.338 96.0651 108.782C94.6031 110.08 92.9806 111.105 91.1257 111.745C89.7207 112.229 87.7496 112.637 86.2116 112.168L86.027 111.899C86.0881 111.989 86.1496 112.079 86.2115 112.168C90.2256 117.986 95.2622 122.911 100.569 127.559C105.926 132.247 111.705 136.446 117.518 140.551L118.003 140.893C127.474 133.982 135.475 124.967 141.088 114.668C139.912 114.527 138.747 113.772 137.742 113.21C136.531 112.53 135.393 111.718 134.505 110.636C132.572 108.279 132.824 105.242 132.475 102.383C132.454 102.205 132.688 102.161 132.796 102.249C133.844 103.12 134.212 104.547 134.649 105.779C135.131 107.134 135.676 108.25 136.781 109.203C137.809 110.091 139.064 110.744 140.283 111.325C140.912 111.623 144.033 112.389 144.388 113.024C149.78 111.758 155.032 113.946 159.027 117.636C162.887 121.201 165.72 125.836 168.221 130.412C170.89 135.294 173.076 140.383 174.961 145.614C176.871 150.923 178.335 156.349 179.14 161.937C179.819 166.648 180.236 171.433 180.505 176.197L180.538 176.793C184.527 170.53 188.615 164.334 192.788 158.192C191.839 155.658 192.889 153.071 194.666 151.114C196.635 148.947 199.358 147.941 201.963 146.77L202.305 146.615C203.561 146.042 204.812 145.412 205.897 144.553C206.94 143.725 207.707 142.583 208.806 141.82C210.403 140.709 213.302 140.946 213.376 143.374C213.414 144.708 212.841 146.17 212.317 147.368C211.723 148.723 210.923 149.951 209.972 151.08C209.928 151.132 209.88 151.174 209.831 151.207L209.795 151.23C211.109 151.448 212.433 151.623 213.783 151.684C216.507 151.809 219.259 151.608 221.926 151.033C224.655 150.446 227.3 149.491 229.755 148.159C231.853 147.022 233.797 145.551 236.18 145.204C236.4 145.17 236.621 145.149 236.85 145.137C237.23 145.115 237.61 145.564 237.46 145.94C237.378 146.147 237.291 146.352 237.196 146.559C236.372 148.374 235.108 150.136 233.532 151.472L233.41 151.574C233.966 151.382 234.513 151.166 235.052 150.923C238.219 149.497 241.092 147.341 244.487 146.474C244.647 146.432 244.81 146.394 244.973 146.358C246.023 146.132 246.576 147.273 245.959 148.055C245.86 148.182 245.761 148.307 245.657 148.432C244.143 150.312 242.471 152.058 240.629 153.626C239.998 154.163 239.347 154.683 238.683 155.18C238.404 155.391 238.123 155.597 237.839 155.799L237.699 155.898C238.031 155.664 238.358 155.425 238.683 155.18C240.762 154.55 242.812 153.804 244.816 152.978C245.613 152.65 246.232 153.457 246.316 154.121C246.6 156.345 244.132 157.953 242.526 159.022C240.916 160.096 239.144 160.912 237.329 161.567C233.84 162.828 230.175 163.401 226.516 163.915L224.739 164.162C217.704 165.146 210.357 166.323 205.309 171.799C202.481 174.867 200.566 178.68 198.815 182.431C197.066 186.179 195.53 190.025 194.072 193.893C192.562 197.896 191.245 201.973 189.847 206.016C188.562 209.728 187.028 213.393 185.508 217.021L185.269 217.594C182.043 225.304 178.189 232.566 172.819 239.004C171.933 240.067 170.503 238.558 171.321 237.505C176.938 230.26 180.847 221.711 184.073 213.183C185.541 209.303 186.771 205.329 188.182 201.428L189.022 199.11C190.143 196.02 191.274 192.934 192.454 189.869C193.947 185.991 195.589 182.159 197.467 178.452L197.666 178.061C199.505 174.485 201.69 170.96 204.697 168.254C210.109 163.381 217.31 162.211 224.274 161.285L226.464 160.997C229.408 160.605 232.36 160.173 235.223 159.386C236.875 158.934 238.489 158.354 240.006 157.555C240.61 157.238 241.2 156.89 241.77 156.509C240.143 156.987 238.493 157.378 236.814 157.684C235.992 157.834 235.178 157.947 234.367 158.025C232.278 158.232 230.205 158.223 228.065 158.111C227.883 158.101 227.824 157.816 228.019 157.78C229.509 157.514 231.001 157.183 232.487 156.823L232.933 156.714C232.941 156.467 233.038 156.205 233.241 155.956C233.981 155.055 235.386 154.594 236.359 153.958C237.38 153.293 238.369 152.574 239.311 151.805C240.173 151.101 241.001 150.357 241.797 149.579L242.036 149.345C241.957 149.423 241.877 149.501 241.797 149.579C239.647 150.573 237.608 151.847 235.362 152.633C233.577 153.261 231.705 153.684 229.817 153.834L229.699 153.843L229.582 153.851C227.611 153.992 225.627 153.935 223.685 154.362C223.468 154.411 223.4 154.119 223.595 154.037C225.291 153.331 227.055 153.058 228.838 152.728C228.876 152.589 228.974 152.464 229.143 152.384L229.599 152.166C230.957 151.513 232.224 150.854 233.353 149.795C234.35 148.858 235.181 147.764 235.804 146.55C233.309 147.098 231.118 148.989 228.849 150.053C226.377 151.213 223.762 152.046 221.074 152.519L220.768 152.572C215.746 153.41 209.707 153.303 205.208 150.691C205.064 150.606 205.168 150.414 205.316 150.437C206.592 150.646 207.855 150.894 209.119 151.114C208.871 150.887 208.762 150.482 209.047 150.156C210.181 148.855 211.079 147.368 211.652 145.741L211.762 145.423C212.026 144.669 212.473 143.497 212.017 142.816C211.582 142.167 210.557 142.256 209.945 142.531C208.671 143.106 207.823 144.541 206.75 145.407C205.58 146.354 204.249 147.056 202.886 147.683L202.598 147.814C200.241 148.875 197.723 149.768 195.87 151.64C194.873 152.646 194.015 153.903 193.728 155.313C193.597 155.96 193.597 156.626 193.77 157.266C193.907 157.767 194.195 158.076 194.03 158.585C193.814 159.242 193.052 160.028 192.659 160.614C192.202 161.29 191.748 161.969 191.294 162.647C190.388 164.004 189.485 165.365 188.583 166.724C186.779 169.446 184.994 172.181 183.223 174.924C182.647 175.818 182.073 176.712 181.501 177.607L180.644 178.951L180.191 179.659L179.419 180.874C179.446 180.986 179.444 181.104 179.408 181.208C179.276 181.583 179.03 181.839 178.723 182.025L178.669 182.057C174.16 189.186 169.723 196.362 165.242 203.508C165.004 205.688 164.78 207.872 164.585 210.055C164.144 214.996 163.842 219.951 163.745 224.911C163.698 227.312 163.89 229.727 163.994 232.126C164.045 233.271 164.114 234.415 164.205 235.558L164.271 236.368C164.36 237.482 164.411 238.587 164.011 239.648C163.656 240.58 162.574 240.789 161.934 240.079C153.583 239.743 145.225 239.488 136.867 239.329C121.907 239.042 106.941 239.086 91.9791 239.376C84.4643 239.521 76.9474 239.726 69.4348 239.98C65.7334 240.103 62.0298 240.276 58.3263 240.327C56.331 240.354 53.1906 239.627 53.0296 237.381L53.0256 237.313C52.7763 237.38 52.5186 237.435 52.2545 237.475C52.1369 237.494 52.024 237.488 51.9197 237.464L51.8679 237.45C48.8935 238.357 45.1311 237.063 42.3048 236.309L42.0714 236.247C39.3735 235.544 37.2059 234.538 35.4376 232.302C32.3426 228.385 31.2862 223.127 30.7369 218.281C30.2214 213.72 30.1918 209.074 30.8193 204.522C30.4496 200.813 30.8108 196.985 31.2313 193.297C31.4383 191.473 31.6813 189.651 31.9728 187.838C32.1355 186.825 32.3489 185.824 32.5665 184.824C32.6534 184.424 32.7257 183.994 32.8358 183.579L32.8855 183.401C32.5474 183.446 32.1777 183.372 31.8207 183.176C30.9714 182.708 30.7242 181.764 30.7094 180.859C30.6629 178.133 30.9883 175.328 31.2756 172.619C31.565 169.913 31.9622 167.197 32.4819 164.526L32.6164 163.837C33.0102 161.839 33.4608 159.776 34.2545 157.898C31.2736 157.391 28.301 156.852 25.4088 155.934C23.9975 155.484 22.6074 154.924 21.2806 154.241ZM176.871 182.615C176.824 182.626 176.78 182.639 176.735 182.651C175.544 182.985 174.34 183.268 173.14 183.573C171.065 184.095 169.037 184.678 167.108 185.585C166.704 190.687 166.105 195.772 165.535 200.86L165.422 201.878C166.297 200.255 167.192 198.644 168.128 197.053C170.978 192.202 173.894 187.39 176.871 182.615ZM33.6122 183.121C33.6186 183.727 33.4918 184.357 33.4242 184.94C33.3144 185.887 33.2256 186.838 33.1137 187.785C32.8855 189.687 32.6911 191.591 32.5496 193.502C32.4587 194.722 32.3996 195.945 32.3468 197.169C33.5447 192.69 35.1313 188.309 36.6397 183.921C36.3876 183.895 36.1298 183.833 35.864 183.763L35.4163 183.642C35.1524 183.574 34.2962 183.363 33.6122 183.121ZM180.644 178.951L180.652 179.151C180.684 179.864 180.257 180.265 179.74 180.369C180.04 179.895 180.342 179.422 180.644 178.951ZM43.5735 145.194C44.8348 145.306 46.0707 145.574 47.2496 146.039L47.3633 146.084C48.2353 146.42 49.5101 146.843 49.7953 147.774C49.8756 148.039 49.6601 148.256 49.4129 148.277C48.4665 148.353 47.351 147.339 46.4742 146.996C45.4981 146.616 44.4756 146.333 43.4404 146.183C41.1143 145.842 38.689 146.1 36.5003 146.948C36.3714 146.999 36.2911 146.794 36.4073 146.732C38.6129 145.532 41.0658 144.972 43.5735 145.194ZM16.8461 151.238C16.7002 151.109 16.5545 150.974 16.4108 150.839C15.2781 149.767 14.2751 148.516 13.5324 147.141L13.3369 146.769C12.732 145.598 11.9892 143.928 13.4108 143.084C14.2601 142.579 15.2826 142.706 16.2291 143.012C16.2904 143.031 16.3516 143.053 16.4129 143.074C16.8354 143.222 17.2432 143.399 17.6066 143.568C19.1847 144.293 20.577 145.348 22.0347 146.278C23.6143 147.286 25.1739 147.931 26.9969 148.308L27.1685 148.343C28.8798 148.681 30.7347 148.899 31.9284 150.306C32.2284 150.661 31.9538 151.327 31.4362 151.152C28.1362 150.038 24.6439 149.793 21.6143 147.964C20.3594 147.208 19.1721 146.339 17.8897 145.623C17.2094 145.242 16.507 144.909 15.7585 144.681L15.3496 144.56C15.1101 144.49 14.8242 144.421 14.6319 144.49C14.266 144.617 14.3828 144.813 14.496 145.155L14.5073 145.189C15.3967 147.941 17.9319 150.245 20.2812 151.769C20.82 152.12 21.3714 152.441 21.9333 152.739C25.7373 154.767 29.9937 155.711 34.1741 156.832C34.1741 156.832 36.5911 157.507 37.3918 157.761C38.2834 157.686 39.2996 158.002 39.9714 158.378C40.6242 158.743 41.1503 159.234 41.5475 159.811C41.5475 159.811 41.9299 160.13 41.9996 160.624C42.2003 161.083 42.3355 161.577 42.4031 162.093C42.4411 162.396 42.3651 162.628 42.2214 162.793C42.6535 169.428 40.8621 176.025 38.8424 182.331L38.6423 182.952L38.5137 183.346C36.3355 190.032 33.8362 196.668 32.7207 203.638C31.9749 208.294 31.9982 213.113 32.5454 217.79L32.5839 218.113C33.1231 222.535 34.1604 227.496 36.9714 231.055C38.4052 232.871 40.1039 233.678 42.2757 234.263L42.3947 234.295C44.3595 234.812 46.3876 235.546 48.4137 235.768C50.294 235.973 51.87 235.273 53.5623 234.618L53.5643 234.616C57.1284 231.461 58.7468 226.866 59.9425 222.229C63.0418 210.228 62.6573 197.771 60.8996 185.595C59.9827 179.234 58.7362 172.927 57.4939 166.623C56.8728 163.471 56.2031 160.326 55.6475 157.165L55.3175 155.304C55.1354 154.27 54.9593 153.235 54.8087 152.196C54.6059 150.799 54.5446 149.425 54.4749 148.019C52.7679 145.189 50.2897 142.858 47.4186 141.186C45.363 139.988 43.1869 139.158 40.9411 138.555C34.5207 136.824 27.5214 136.947 21.0608 135.615C18.8905 135.169 16.8303 134.505 14.7712 133.71L14.4904 133.601C13.546 133.233 12.5827 133.028 12.1136 134.142C11.7798 134.935 11.9784 135.759 12.4791 136.425C13.7066 138.056 16.1742 138.813 18.0312 139.401C19.1488 139.756 20.2897 140.037 21.4432 140.246C22.5967 140.455 23.7545 140.508 24.8615 140.916C25.2883 141.072 25.3728 141.751 24.8615 141.871C23.4587 142.199 22.0474 141.918 20.6531 141.645C19.1214 141.343 17.6129 140.914 16.1467 140.371C15.8763 140.271 15.5964 140.166 15.3114 140.054L15.0967 139.969C15.3186 140.13 15.5404 140.288 15.7643 140.447C15.8235 140.489 15.7876 140.601 15.7094 140.573C12.2619 139.287 9.12515 136.965 6.69511 134.219L6.5742 134.081C5.71857 133.1 3.76857 130.133 2.1249 130.959C0.581466 131.734 3.21249 134.722 4.21236 135.944L4.32847 136.087C5.46509 136.116 6.56579 136.824 7.48692 137.395C9.08621 138.386 10.7573 139.24 12.4602 140.039C15.8447 141.63 19.4383 142.753 22.7869 144.424C22.8313 144.448 22.7975 144.505 22.7552 144.498C20.6235 144.158 18.5151 143.615 16.4552 142.941L16.3633 142.912L16.2714 142.881C14.9848 142.459 13.7151 141.981 12.4665 141.472C11.0785 140.905 9.72213 140.269 8.40593 139.549C7.21438 138.898 5.89185 137.725 4.51016 137.551C4.36227 137.532 4.23128 137.53 4.1172 137.541C2.5306 137.674 3.84257 140.303 4.28623 141.089C5.01088 142.381 5.88553 143.573 6.88905 144.661C8.92356 146.872 11.3891 148.624 14.0574 149.987C14.9679 150.452 15.8996 150.862 16.8461 151.238Z" fill="#FF781F"/>
<path fill-rule="evenodd" clip-rule="evenodd" d="M121.372 78.5256C122.905 78.2297 124.811 78.8743 126.339 79.1567L126.453 79.1772C128.306 79.501 130.155 79.8924 132.028 80.0835C133.817 80.2663 135.644 80.2991 137.432 80.0934C138.291 79.9945 139.143 79.8263 139.978 79.6006C140.335 79.504 140.689 79.3962 141.039 79.2766L141.078 79.2614C141.335 79.1553 142.03 78.7552 142.022 78.9781C142.217 78.7526 142.487 78.5926 142.782 78.5148C143.199 78.4052 143.735 78.5081 144.084 78.8031C144.538 78.4434 145.219 78.7015 145.523 79.1322C146.045 79.8709 145.875 80.7367 145.808 81.5937L145.802 81.6693C145.745 82.477 145.657 83.2793 145.549 84.081L145.501 84.4246C145.333 85.6105 145.287 87.5663 143.85 87.955C142.714 88.2627 141.675 87.0933 140.942 86.1653L140.541 85.6513C140.067 85.0487 139.636 84.4284 139.288 83.7434C139.13 83.4317 138.977 83.1124 138.845 82.7888C138.828 82.748 138.816 82.7114 138.803 82.6746C136.696 82.9583 134.54 82.9177 132.428 82.6391C131.09 82.4627 129.773 82.2078 128.475 81.8654L127.89 82.924C127.205 84.1585 126.51 85.3893 125.779 86.5958L125.723 86.6877C125.039 87.7759 123.894 88.8658 122.541 88.0508C121.329 87.3212 121.278 85.6617 121.15 84.4234C121.065 83.5962 120.996 82.7633 120.963 81.9316L120.951 81.5752C120.929 80.7687 120.798 79.8339 121.108 79.0796C121.153 78.9697 121.311 78.8851 121.406 79.0007C122.053 79.7882 122.249 81.0088 122.529 81.9753C122.84 83.0506 123.291 84.2251 123.453 85.3406L123.498 85.262V85.262C123.658 84.959 123.82 84.6577 123.984 84.3568L124.474 83.4541C124.914 82.6391 125.361 81.8292 125.813 81.0213C125.297 80.8274 124.786 80.6191 124.277 80.4074L123.122 79.9243C122.462 79.6455 121.79 79.3309 121.294 78.8236C121.206 78.7338 121.236 78.5516 121.372 78.5256ZM143.285 81.5031C142.146 81.966 140.969 82.2999 139.771 82.5214C139.848 82.6007 139.925 82.6799 139.997 82.7632C140.279 83.0897 140.578 83.4034 140.879 83.7135L141.06 83.8992C141.521 84.3724 142.213 85.1517 142.92 85.6046L142.958 85.4001C142.965 85.3649 142.969 85.3343 142.972 85.3106L143.047 84.6383C143.06 84.5262 143.071 84.4141 143.083 84.3018C143.143 83.6955 143.192 83.0878 143.243 82.4806C143.269 82.1606 143.275 81.832 143.285 81.5031ZM129.816 42.4313C132.527 41.2731 135.744 41.82 138.078 43.5695C140.467 45.3598 141.512 48.2705 141.65 51.1745C143.54 49.5606 146.261 50.7822 147.852 52.2944C149.688 54.0395 150.617 56.6732 150.189 59.1726C149.762 61.6636 147.96 63.8612 145.523 64.602C144.356 64.9564 143.056 64.9644 141.883 64.6347C141.485 64.5225 140.996 64.3488 140.545 64.1068C140.571 64.2103 140.597 64.3141 140.622 64.4175C141.207 66.8964 141.539 69.6828 140.661 72.1343C139.249 76.0736 134.234 78.2789 131.103 74.7823C129.873 73.4096 128.918 71.2597 128.992 69.3882C129.031 68.4048 129.588 67.2671 130.738 67.3337C131.629 67.3851 132.052 68.1315 131.824 68.9214L131.81 68.967C131.327 70.4771 132.152 72.6591 133.348 73.689C135.181 75.2684 137.697 73.894 138.699 72.0419C139.868 69.8834 139.725 67.116 139.352 64.7677C138.985 62.4618 138.167 60.3528 137.299 58.2192C137.207 58.2359 137.114 58.2513 137.018 58.2642C135.292 58.4986 131.779 58.5869 129.872 57.3358C130.076 59.2669 129.674 61.2548 128.578 62.89C127.356 64.7123 125.515 65.6767 123.372 65.9722C121.291 66.2596 118.879 66.3177 116.824 65.8244C112.449 64.774 110.906 59.3704 112.23 55.4697C113.012 53.1624 115.196 51.0872 117.624 50.563C118.875 49.74 120.554 49.4963 121.998 49.6086C124.153 49.7766 126.277 50.7084 127.72 52.3449C128.272 52.9701 128.726 53.6779 129.075 54.4354C129.193 54.3428 129.33 54.2733 129.484 54.2369C129.726 54.1803 129.937 54.1676 130.173 54.2509C130.291 54.2925 130.461 54.4396 130.563 54.5351L130.796 54.8091C131.082 55.1423 131.353 55.4217 131.862 55.6289C133.281 56.2065 135.204 56.3318 136.711 56.2137C140.556 55.9127 140.072 50.8177 139.125 48.2001C138.003 45.0992 134.788 43.1702 131.516 43.721C130.111 43.9575 128.77 44.7059 127.741 45.6838C126.593 46.7756 126.101 48.0945 125.412 49.4765C125.371 49.5583 125.23 49.5405 125.213 49.4503C124.647 46.5362 127.331 43.4932 129.816 42.4313ZM109.337 65.9256C109.22 65.7884 109.373 65.5472 109.541 65.6609C110.766 66.4939 112.129 67.095 113.611 67.2575C114.307 67.3336 115.008 67.3389 115.701 67.2321C116.292 67.1408 116.824 66.9608 117.413 67.1235C117.727 67.2101 117.784 67.5743 117.592 67.8026C116.702 68.8629 114.51 68.5797 113.314 68.2954C111.768 67.9281 110.367 67.1366 109.337 65.9256ZM150.579 63.9896C151.18 63.6165 151.897 64.3552 151.541 64.9518C150.627 66.4827 147.979 66.6074 146.443 66.2409C146.323 66.2125 146.351 66.0238 146.472 66.0272C147.355 66.049 148.153 65.8793 148.914 65.4185C149.563 65.0248 149.951 64.3785 150.579 63.9896ZM121.22 51.7525L121.1 51.7536C119.695 51.7762 118.409 52.312 117.056 52.5952C116.943 52.6188 116.831 52.6068 116.729 52.5696C115.081 53.6697 113.945 55.3994 113.79 57.6754C113.684 59.2519 114.068 60.9695 115.004 62.2632C116.069 63.7356 117.785 63.9628 119.474 64.0067L119.646 64.0106C122.84 64.073 126.354 63.8842 127.492 60.312C128.335 57.6682 127.435 54.4586 125.088 52.875C123.948 52.1059 122.587 51.7512 121.22 51.7525ZM146.953 53.6485L146.859 53.5391C145.606 52.1013 143.62 50.7917 141.662 51.5158L141.667 51.758C141.668 51.7983 141.668 51.8387 141.668 51.8791C141.662 54.6558 140.587 57.2472 137.943 58.062C138.652 59.0741 139.222 60.1972 139.679 61.3628C139.84 61.2576 140.035 61.1908 140.263 61.1677C141.193 61.0735 141.727 61.9478 142.534 62.274C143.289 62.5796 144.146 62.6584 144.944 62.5005C146.688 62.1554 147.912 60.6504 148.341 58.9803C148.826 57.0923 148.185 55.113 146.953 53.6485ZM120.395 55.9855C120.976 55.0023 122.412 55.1446 122.987 56.0114L123.015 56.0546L123.021 56.0465C123.979 57.2889 123.516 59.251 122.124 59.9495C121.008 60.5094 119.589 60.3625 118.847 59.2726C118.681 59.0283 118.574 58.7408 118.535 58.4498C118.508 58.2518 118.523 58.0539 118.568 57.8572L118.557 57.9032C118.579 57.8039 118.613 57.6483 118.623 57.6112C118.721 57.2104 118.956 56.7806 119.25 56.4904C119.553 56.1915 119.974 56.0098 120.395 55.9855ZM144.303 54.9642C144.819 54.9642 145.276 55.1798 145.648 55.5215C146.178 56.0079 146.251 56.7079 146.137 57.3721C146.102 57.5748 146.054 57.7707 146.003 57.9702L145.96 58.1507C145.952 58.1807 145.944 58.2104 145.935 58.2397C145.903 58.3634 145.853 58.4769 145.793 58.5855C145.572 59.4062 144.68 59.8136 143.894 59.6346C143.523 59.5503 143.154 59.243 142.966 58.9209C142.904 58.8148 142.86 58.7091 142.829 58.603L142.676 58.2397V58.2397C142.647 58.1526 142.63 58.0592 142.606 57.9702C142.555 57.7709 142.506 57.5746 142.47 57.3721C142.349 56.6857 142.445 56.0351 142.959 55.5215C143.304 55.1764 143.816 54.9642 144.303 54.9642ZM132.954 47.8452C133.848 47.7251 134.759 48.1419 135.221 48.9322C135.623 49.6191 135.621 50.5433 135.221 51.2302L135.187 51.2883V51.2883C134.45 52.5534 132.731 52.7158 131.697 51.7383L131.647 51.6909V51.6909C130.982 51.0626 130.832 50.0204 131.176 49.2042C131.491 48.4577 132.151 47.9532 132.954 47.8452Z" fill="#FF781F"/>
<path fill-rule="evenodd" clip-rule="evenodd" d="M116.238 1.80542C116.624 0.596496 117.716 -0.130549 118.966 0.0195094C120.073 0.150547 121.257 1.25168 121.123 2.46695C121.097 2.70154 121.064 2.92135 121.023 3.12847L121.029 3.13032L121.034 3.13059L121.007 3.2109C120.924 3.59767 120.811 3.94428 120.642 4.27188C120.427 4.89959 120.22 5.52941 120.016 6.16135C120.311 6.14867 120.612 6.16558 120.918 6.22264C121.234 5.41106 121.553 4.60158 121.869 3.78788C122.208 2.91923 122.447 1.80331 123.117 1.13121C123.975 0.27313 125.463 0.0955954 126.509 0.708511C127.614 1.35524 128.008 2.50499 127.768 3.73716C127.646 4.36567 127.227 4.80307 126.708 5.07789L126.652 5.10671L126.254 6.05356C126.376 6.00072 126.503 5.95211 126.64 5.91195C126.855 5.84855 127.066 5.80839 127.272 5.79149C127.841 4.75798 128.468 3.75407 129.115 2.76918C129.859 1.63634 131.314 1.15446 132.534 1.87094C133.626 2.51133 134.213 4.19368 133.43 5.29904C132.836 6.1381 132.273 6.99407 131.718 7.85849C131.813 7.8754 131.908 7.89653 131.999 7.92401C132.041 7.86695 132.085 7.80988 132.132 7.75282C132.737 7.00041 133.441 6.4361 134.164 5.81051C134.841 5.22295 135.153 4.29935 136.042 3.8534C137.162 3.29332 138.511 3.56174 139.177 4.67767C140.607 7.06804 138.208 8.81379 136.673 10.2615C138.007 9.42671 139.397 8.66374 140.822 8.00432C141.623 7.63446 142.437 7.27728 143.263 6.96871C144.488 6.51219 145.479 6.65823 146.484 7.50765C146.933 7.88808 147.157 8.7189 146.95 9.27242C146.55 10.3334 145.917 10.978 144.808 11.2845C144.028 11.5001 143.229 11.6459 142.449 11.872C141.142 12.2482 139.873 12.7069 138.642 13.2796C138.73 13.3346 138.815 13.3938 138.893 13.4614C139.812 13.1634 140.748 12.9055 141.688 12.6857C143.248 12.3192 144.835 12.0715 146.429 11.9166L146.959 11.8672C148.87 11.6833 151.168 11.344 152.341 13.1782C152.727 13.7826 152.769 14.7802 152.341 15.3783C151.523 16.5281 150.709 16.7563 149.356 16.7775C150.688 16.9191 152.019 17.0945 153.342 17.2995C154.255 17.439 155.168 17.5971 156.076 17.7726L156.53 17.8617C157.637 18.0836 158.872 18.2125 159.823 18.855C161.898 20.2584 160.924 22.9912 158.626 23.2828C157.515 23.4223 156.281 22.951 155.191 22.7312C154.133 22.5177 153.071 22.3296 152.004 22.1648C151.451 22.0781 150.899 22.0021 150.345 21.9323C151.472 22.095 152.592 22.3254 153.682 22.6509L153.985 22.7425C156.092 23.3863 158.936 24.4116 159.593 26.6687C159.992 28.0403 158.902 29.2366 157.582 29.3169C156.355 29.3909 155.333 28.6575 154.291 28.1164C153.532 27.7233 152.761 27.4295 151.943 27.178C151.097 26.9181 150.235 26.7025 149.366 26.5271C150.1 26.9325 150.815 27.378 151.502 27.8765L151.817 28.1101C153.641 29.4725 156.422 31.5818 155.78 34.1357C155.577 34.9409 154.681 35.7102 153.821 35.6278C151.582 35.4186 150.347 33.0282 148.658 31.7474C148.217 31.4135 147.735 31.0838 147.229 30.7625C149.788 33.8229 151.825 37.3609 153.374 41.0151C156.78 49.0544 157.824 56.4995 157.849 65.1436L157.85 65.4113C157.854 70.1793 157.747 75.0341 157.283 79.781C156.853 84.1665 156.064 88.495 154.08 92.4664C150.756 99.1259 144.277 104.312 137.132 106.286C129.182 108.484 120.296 106.766 113.784 101.694C112.123 100.4 114.326 97.5917 116.023 98.7856C122.801 103.552 131.567 105.061 139.346 101.835C145.517 99.2781 150.486 93.7766 152.592 87.4424C153.933 83.4128 154.323 79.1161 154.801 74.9165L154.833 74.6367C155.339 70.2449 155.632 65.8234 155.628 61.402C155.621 53.191 154.445 46.432 150.842 38.984C149.147 35.4756 146.948 32.2316 144.321 29.3845C143.525 29.5473 142.677 29.319 141.872 29.2323C141.461 29.188 141.049 29.1457 140.638 29.1076C141.058 29.3799 141.47 29.6629 141.875 29.9525L142.406 30.3364C144.068 31.5294 146.176 32.8882 145.749 35.1945C145.633 35.818 145.013 36.3908 144.412 36.5324C142.234 37.0523 140.737 34.9303 139.266 33.6707C137.986 32.5759 136.647 31.5952 135.283 30.6125C134.974 30.3905 134.662 30.1686 134.347 29.9488C134.643 30.2937 134.93 30.6441 135.21 30.9977L135.624 31.5237C136.877 33.0952 138.682 35.1378 137.567 37.1749C137.25 37.7498 136.576 38.1323 135.922 38.1196C133.675 38.0731 132.781 35.5158 131.727 33.9011C130.82 32.5167 129.836 31.2127 128.818 29.9087C128.537 29.5515 128.255 29.1943 127.968 28.8371C123.248 29.0823 118.544 29.7079 113.923 30.7076C110.748 31.3945 107.626 32.2845 104.527 33.2586L104.269 33.3407C102.592 33.8821 100.864 34.5749 99.6546 35.7631C99.482 36.5817 99.6145 37.445 99.7796 38.2625L99.9083 38.8883C100.439 41.5049 100.8 44.0732 100.529 46.7596C100.249 49.5304 99.4163 52.0222 98.4002 54.5965C97.9195 55.8096 97.422 55.5898 97.2512 56.8918C97.1204 57.8834 97.2013 58.9071 97.2907 59.9071L97.3653 60.7548C97.5528 62.9755 97.6469 65.3966 96.195 67.2289C95.9694 67.51 95.4866 67.398 95.3264 67.1169C95.2632 67.0049 95.1957 66.8971 95.1219 66.7935C94.422 65.7769 93.3489 65.1978 92.1219 64.9738C91.9659 64.9463 92.027 64.7371 92.1577 64.7202C93.195 64.5976 94.1774 64.8576 95.0123 65.3944C94.6164 64.022 91.5514 64.6894 90.5438 64.9561L90.5091 64.9653C89.2526 65.3035 88.0636 65.853 87.0158 66.6308C84.9076 68.1948 83.689 70.6338 83.7502 73.2608C83.8113 75.8435 85.1416 78.2297 87.4269 79.4661C88.5295 80.0621 89.7839 80.3495 91.032 80.3368C92.3348 80.3242 93.4944 79.7514 94.7993 79.8317C95.5541 79.8782 96.1317 80.6898 95.6953 81.3978C95.4044 81.8712 95.0249 82.2432 94.5864 82.5285C95.6553 84.9992 97.0193 87.3558 98.592 89.5306C99.4627 90.7374 100.449 91.8512 101.535 92.8678C102.383 93.6625 104.219 94.5819 104.116 95.907C104.08 96.3847 103.833 96.6763 103.399 96.8539C102.049 97.4072 100.407 95.5018 99.5036 94.5832L99.4311 94.51C98.3053 93.3856 97.2786 92.1429 96.3847 90.824C94.7993 88.4823 93.8148 85.8425 93.4079 83.0696C91.2428 83.7227 88.3756 83.1098 86.6089 82.3087C81.0559 79.7937 79.2407 72.2971 82.616 67.305C83.2695 66.3391 84.0875 65.5127 85.0193 64.8449C84.8148 64.7328 84.623 64.5891 84.4522 64.4074C83.5076 63.4014 82.8397 62.0887 82.1769 60.8788L82.0973 60.7341C81.5089 59.6689 80.9538 58.587 80.4335 57.4884L80.24 57.0756C79.0784 54.5711 78.0601 53.4763 77.2316 50.8429C76.4347 48.3025 75.8064 45.7134 75.3995 43.08L75.2914 42.383C75.0561 40.8549 74.8335 39.2209 75.0053 37.6694C73.8226 38.0562 72.6335 38.295 71.4635 37.7138C70.6919 37.3313 70.266 36.2154 70.5295 35.4143C70.7214 34.8247 71.0418 34.3618 71.4487 33.9983C71.2063 33.8757 70.9786 33.7193 70.7783 33.546L70.6033 33.394C69.895 32.7767 69.8444 31.6037 70.2744 30.8302C70.3166 30.7562 70.3588 30.6801 70.3988 30.6061C70.8078 29.8727 71.6532 29.393 72.4881 29.4057C72.623 29.4078 72.7579 29.4078 72.895 29.4057C72.5049 29.319 72.1233 29.1858 71.7607 28.9618C70.1248 27.9537 70.3314 25.2209 72.311 24.739C73.1416 24.5383 74.0587 24.6207 74.9737 24.8363C74.9399 24.8172 74.9062 24.7982 74.8725 24.7771C74.181 24.3523 73.6012 23.5217 73.6666 22.6699C73.7382 21.7273 74.0418 21.0552 74.8725 20.5606C75.5935 20.1337 76.6139 20.0936 77.3306 20.5606C77.9526 20.9685 78.5618 21.4187 79.1479 21.9027C78.5597 21.1778 78.0495 20.3894 77.8429 19.5525C77.5878 18.5105 78.0137 17.3756 78.9498 16.8261C79.6961 16.3886 80.4845 16.4372 81.1887 16.7754C81.1507 16.228 81.2836 15.67 81.6462 15.1754C82.3883 14.1612 83.7375 13.5776 84.9118 14.3174C85.0657 14.4146 85.2723 14.5815 85.4726 14.7866C85.0826 13.5417 85.4346 12.2356 86.7649 11.6734C87.5766 11.3289 88.675 11.5022 89.3791 12.0961C88.9322 9.67188 92.5014 7.89019 93.8886 10.3947C94.2034 10.9621 94.5149 11.5595 94.7935 12.1706L94.8963 12.4004L94.9069 12.3962L94.836 12.2282L94.7635 12.0601C94.3777 11.1619 93.8865 10.2277 93.7516 9.2534C93.5534 7.81199 94.1943 6.44456 95.7586 6.23321C96.566 6.12331 97.4641 6.49105 98.0059 7.13377C97.7129 4.89747 100.205 3.27219 101.999 4.94186C102.849 5.73231 103.302 6.88839 103.841 7.90287C104.147 8.47563 104.459 9.04628 104.765 9.62115C104.843 9.52816 104.927 9.43516 105.016 9.34428C104.563 7.98319 104.21 6.58828 103.913 5.18491C103.631 3.86186 104.291 2.48808 105.652 2.1142C106.89 1.7716 108.44 2.5369 108.716 3.85784C108.91 4.78757 109.139 5.70716 109.392 6.62209C109.565 6.57982 109.736 6.55023 109.905 6.5291C109.919 6.3572 109.935 6.18436 109.953 6.01246L110.019 5.40109C110.166 4.00418 110.315 2.40955 111.043 1.22209C112.285 -0.80687 115.468 0.0343038 115.502 2.43313C115.521 3.67376 115.017 4.90381 114.842 6.13176C114.766 6.66648 114.722 7.20753 114.697 7.74859C115.036 5.95211 115.502 4.17888 116.042 2.43313C116.105 2.22389 116.172 2.01466 116.238 1.80542ZM88.7719 71.0819C91.5653 70.6486 94.1184 72.2105 95.7733 74.398C96.0748 74.7974 95.8766 75.3617 95.6047 75.6978C95.4086 75.945 95.1451 75.9746 94.8478 76.0127C94.5063 76.0571 94.0741 75.7802 93.9244 75.4822C92.8598 73.3518 90.9603 72.0055 88.7719 71.177C88.7319 71.1622 88.7192 71.0903 88.7719 71.0819ZM92.6443 32.9111L92.7289 32.82C93.2941 32.2323 92.4008 31.3344 91.8343 31.9235C91.2379 32.5436 90.8416 33.2968 90.4604 34.0602C90.0972 34.7881 91.188 35.431 91.5527 34.7004L91.7188 34.3683C91.9794 33.8519 92.2574 33.3418 92.6443 32.9111ZM84.7994 31.7047C85.6006 31.5695 85.2609 30.3472 84.4632 30.4821C83.4297 30.6566 82.4003 30.8551 81.3666 31.0299C80.5657 31.1651 80.9053 32.3874 81.7031 32.2528C82.7365 32.078 83.766 31.8795 84.7994 31.7047ZM132.523 23.3604C131.749 23.1015 131.417 24.3258 132.187 24.5833C133.25 24.939 134.305 25.3036 135.314 25.7975C136.043 26.1542 136.685 25.0609 135.952 24.7025C134.845 24.1604 133.69 23.751 132.523 23.3604ZM84.6173 21.7169C83.8615 21.4139 83.5332 22.6399 84.281 22.9398L87.0133 24.0352C87.7691 24.3383 88.0973 23.1125 87.3495 22.8126L84.6173 21.7169ZM142.063 18.7395L141.964 18.6765C141.278 18.2314 140.644 19.3287 141.325 19.7715C141.725 20.0313 142.211 20.2075 142.578 20.5169L142.654 20.5854C143.246 21.1454 144.142 20.2506 143.549 19.6886C143.115 19.2779 142.565 19.0492 142.063 18.7395Z" fill="#FF781F"/>
</svg>
