<svg width="92" height="108" viewBox="0 0 92 108" fill="none" xmlns="http://www.w3.org/2000/svg">
<path fill-rule="evenodd" clip-rule="evenodd" d="M51.3723 78.5256C52.9046 78.2297 54.8109 78.8743 56.339 79.1567L56.4529 79.1772C58.3059 79.501 60.1549 79.8924 62.0284 80.0835C63.817 80.2663 65.6437 80.2991 67.4325 80.0934C68.2915 79.9945 69.1431 79.8263 69.9776 79.6006C70.3346 79.504 70.6887 79.3962 71.0386 79.2766L71.0781 79.2614C71.3352 79.1553 72.0302 78.7552 72.022 78.9781C72.2175 78.7526 72.4866 78.5926 72.7822 78.5148C73.1992 78.4052 73.7346 78.5081 74.0836 78.8031C74.5376 78.4434 75.2187 78.7015 75.5232 79.1322C76.0453 79.8709 75.8754 80.7367 75.8079 81.5937L75.8022 81.6693C75.7449 82.477 75.6572 83.2793 75.549 84.081L75.5014 84.4246C75.333 85.6105 75.2868 87.5663 73.8503 87.955C72.7143 88.2627 71.6747 87.0933 70.9423 86.1653L70.5415 85.6513C70.0668 85.0487 69.6358 84.4284 69.2884 83.7434C69.1302 83.4317 68.9772 83.1124 68.8448 82.7888C68.8281 82.748 68.8158 82.7114 68.8032 82.6746C66.6964 82.9583 64.5398 82.9177 62.4275 82.6391C61.0902 82.4627 59.7727 82.2078 58.4751 81.8654L57.8897 82.924C57.2046 84.1585 56.5098 85.3893 55.7794 86.5958L55.7227 86.6877C55.039 87.7759 53.8941 88.8658 52.5406 88.0508C51.3294 87.3212 51.2779 85.6617 51.1503 84.4234C51.0651 83.5962 50.996 82.7633 50.9628 81.9316L50.9508 81.5752C50.9291 80.7687 50.7979 79.8339 51.1078 79.0796C51.1528 78.9697 51.3106 78.8851 51.4057 79.0007C52.0532 79.7882 52.2491 81.0088 52.5288 81.9753C52.8402 83.0506 53.2913 84.2251 53.4531 85.3406L53.4983 85.262V85.262C53.6577 84.959 53.8203 84.6577 53.9837 84.3568L54.4739 83.4541C54.9136 82.6391 55.3613 81.8292 55.813 81.0213C55.2972 80.8274 54.7862 80.6191 54.2772 80.4074L53.1222 79.9243C52.4624 79.6455 51.7897 79.3309 51.2937 78.8236C51.2058 78.7338 51.2365 78.5516 51.3723 78.5256ZM73.2846 81.5031C72.1465 81.966 70.9693 82.2999 69.7708 82.5214C69.8481 82.6007 69.9252 82.6799 69.997 82.7632C70.2791 83.0897 70.5783 83.4034 70.8793 83.7135L71.0599 83.8992C71.5209 84.3724 72.2134 85.1517 72.9201 85.6046L72.9583 85.4001C72.9646 85.3649 72.9695 85.3343 72.9721 85.3106L73.0474 84.6383C73.0596 84.5262 73.0714 84.4141 73.0826 84.3018C73.1434 83.6955 73.1918 83.0878 73.2425 82.4806C73.2692 82.1606 73.2755 81.832 73.2846 81.5031ZM59.8162 42.4313C62.5268 41.2731 65.7437 41.82 68.0785 43.5695C70.4675 45.3598 71.5122 48.2705 71.6504 51.1745C73.5397 49.5606 76.2606 50.7822 77.8519 52.2944C79.6882 54.0395 80.617 56.6732 80.1889 59.1726C79.7624 61.6636 77.9605 63.8612 75.5227 64.602C74.3563 64.9564 73.0563 64.9644 71.883 64.6347C71.4845 64.5225 70.9963 64.3488 70.5452 64.1068C70.571 64.2103 70.5972 64.3141 70.6217 64.4175C71.2071 66.8964 71.539 69.6828 70.6606 72.1343C69.2487 76.0736 64.2338 78.2789 61.1028 74.7823C59.8735 73.4096 58.9179 71.2597 58.9923 69.3882C59.0313 68.4048 59.5882 67.2671 60.738 67.3337C61.6295 67.3851 62.0522 68.1315 61.824 68.9214L61.8101 68.967C61.3268 70.4771 62.152 72.6591 63.3475 73.689C65.1809 75.2684 67.6969 73.894 68.6994 72.0419C69.8677 69.8834 69.7255 67.116 69.352 64.7677C68.9852 62.4618 68.1674 60.3528 67.2993 58.2192C67.2072 58.2359 67.1138 58.2513 67.0183 58.2642C65.2918 58.4986 61.7791 58.5869 59.8716 57.3358C60.0765 59.2669 59.6744 61.2548 58.5777 62.89C57.3558 64.7123 55.5148 65.6767 53.3721 65.9722C51.2911 66.2596 48.8789 66.3177 46.8243 65.8244C42.4492 64.774 40.9065 59.3704 42.2296 55.4697C43.0124 53.1624 45.1965 51.0872 47.6242 50.563C48.8749 49.74 50.5542 49.4963 51.9976 49.6086C54.1534 49.7766 56.2766 50.7084 57.7204 52.3449C58.272 52.9701 58.7256 53.6779 59.0753 54.4354C59.1927 54.3428 59.3297 54.2733 59.4843 54.2369C59.7258 54.1803 59.937 54.1676 60.1732 54.2509C60.2909 54.2925 60.4606 54.4396 60.5626 54.5351L60.7957 54.8091C61.0816 55.1423 61.3533 55.4217 61.8621 55.6289C63.2806 56.2065 65.2044 56.3318 66.7113 56.2137C70.5564 55.9127 70.0722 50.8177 69.1251 48.2001C68.0032 45.0992 64.7877 43.1702 61.5165 43.721C60.1109 43.9575 58.77 44.7059 57.7411 45.6838C56.5927 46.7756 56.1008 48.0945 55.4119 49.4765C55.3711 49.5583 55.2304 49.5405 55.2129 49.4503C54.6467 46.5362 57.3315 43.4932 59.8162 42.4313ZM39.3368 65.9256C39.22 65.7884 39.3733 65.5472 39.5407 65.6609C40.7662 66.4939 42.1291 67.095 43.6107 67.2575C44.3066 67.3336 45.0081 67.3389 45.7012 67.2321C46.2917 67.1408 46.8239 66.9608 47.4133 67.1235C47.7271 67.2101 47.7841 67.5743 47.5925 67.8026C46.702 68.8629 44.5097 68.5797 43.3143 68.2954C41.7685 67.9281 40.3671 67.1366 39.3368 65.9256ZM80.5786 63.9896C81.1803 63.6165 81.8965 64.3552 81.5407 64.9518C80.6272 66.4827 77.9794 66.6074 76.4433 66.2409C76.3231 66.2125 76.3505 66.0238 76.4722 66.0272C77.3551 66.049 78.1531 65.8793 78.9136 65.4185C79.5635 65.0248 79.9512 64.3785 80.5786 63.9896ZM51.2203 51.7525L51.0997 51.7536C49.6952 51.7762 48.409 52.312 47.0556 52.5952C46.9435 52.6188 46.8308 52.6068 46.7292 52.5696C45.0809 53.6697 43.9447 55.3994 43.7905 57.6754C43.6836 59.2519 44.0683 60.9695 45.004 62.2632C46.069 63.7356 47.7847 63.9628 49.4743 64.0067L49.646 64.0106C52.8399 64.073 56.3537 63.8842 57.4923 60.312C58.3348 57.6682 57.435 54.4586 55.088 52.875C53.9482 52.1059 52.5868 51.7512 51.2203 51.7525ZM76.9525 53.6485L76.8588 53.5391C75.6061 52.1013 73.6199 50.7917 71.6616 51.5158L71.6673 51.758C71.668 51.7983 71.6684 51.8387 71.6683 51.8791C71.6624 54.6558 70.5868 57.2472 67.9432 58.062C68.6525 59.0741 69.2223 60.1972 69.6786 61.3628C69.8396 61.2576 70.0354 61.1908 70.2628 61.1677C71.1934 61.0735 71.7266 61.9478 72.5337 62.274C73.2892 62.5796 74.1461 62.6584 74.9436 62.5005C76.6882 62.1554 77.9123 60.6504 78.3412 58.9803C78.8261 57.0923 78.1855 55.113 76.9525 53.6485ZM50.3946 55.9855C50.9764 55.0023 52.4116 55.1446 52.9869 56.0114L53.0145 56.0546L53.0207 56.0465C53.979 57.2889 53.5159 59.251 52.1245 59.9495C51.0083 60.5094 49.5888 60.3625 48.8469 59.2726C48.6806 59.0283 48.5739 58.7408 48.5348 58.4498C48.5082 58.2518 48.5234 58.0539 48.5678 57.8572L48.5566 57.9032C48.5786 57.8039 48.6134 57.6483 48.6225 57.6112C48.7205 57.2104 48.9557 56.7806 49.25 56.4904C49.5531 56.1915 49.9742 56.0098 50.3946 55.9855ZM74.3034 54.9642C74.8187 54.9642 75.2758 55.1798 75.6481 55.5215C76.1775 56.0079 76.2513 56.7079 76.137 57.3721C76.1019 57.5748 76.0537 57.7707 76.0032 57.9702L75.9598 58.1507C75.9522 58.1807 75.944 58.2104 75.9348 58.2397C75.9031 58.3634 75.8526 58.4769 75.7926 58.5855C75.5722 59.4062 74.6801 59.8136 73.8935 59.6346C73.5234 59.5503 73.1543 59.243 72.9658 58.9209C72.9037 58.8148 72.8602 58.7091 72.8294 58.603L72.6762 58.2397V58.2397C72.6475 58.1526 72.6295 58.0592 72.6065 57.9702C72.5551 57.7709 72.5057 57.5746 72.47 57.3721C72.3485 56.6857 72.4453 56.0351 72.9589 55.5215C73.3037 55.1764 73.816 54.9642 74.3034 54.9642ZM62.9535 47.8452C63.8478 47.7251 64.7586 48.1419 65.2211 48.9322C65.6229 49.6191 65.6212 50.5433 65.2211 51.2302L65.1873 51.2883V51.2883C64.4501 52.5534 62.7311 52.7158 61.6969 51.7383L61.6468 51.6909V51.6909C60.9818 51.0626 60.832 50.0204 61.1763 49.2042C61.4911 48.4577 62.1511 47.9532 62.9535 47.8452Z" fill="#FF781F"/>
<path fill-rule="evenodd" clip-rule="evenodd" d="M46.2378 1.80542C46.6236 0.596496 47.7157 -0.130549 48.9659 0.0195094C50.0727 0.150547 51.2575 1.25168 51.1226 2.46695C51.0973 2.70154 51.0635 2.92135 51.0235 3.12847L51.0288 3.13032L51.034 3.13059L51.0066 3.2109C50.9244 3.59767 50.8106 3.94428 50.6419 4.27188C50.4269 4.89959 50.2203 5.52941 50.0158 6.16135C50.3109 6.14867 50.6124 6.16558 50.9181 6.22264C51.2343 5.41106 51.5526 4.60158 51.8689 3.78788C52.2083 2.91923 52.4465 1.80331 53.1169 1.13121C53.975 0.27313 55.4634 0.0955954 56.5091 0.708511C57.6138 1.35524 58.008 2.50499 57.7677 3.73716C57.6455 4.36567 57.2266 4.80307 56.7083 5.07789L56.6524 5.10671L56.254 6.05356C56.3763 6.00072 56.5027 5.95211 56.6398 5.91195C56.8548 5.84855 57.0656 5.80839 57.2722 5.79149C57.8415 4.75798 58.4676 3.75407 59.1148 2.76918C59.859 1.63634 61.3137 1.15446 62.5344 1.87094C63.6264 2.51133 64.2125 4.19368 63.4304 5.29904C62.8358 6.1381 62.2729 6.99407 61.7185 7.85849C61.8133 7.8754 61.9082 7.89653 61.9989 7.92401C62.041 7.86695 62.0853 7.80988 62.1317 7.75282C62.7367 7.00041 63.4409 6.4361 64.164 5.81051C64.8408 5.22295 65.1528 4.29935 66.0424 3.8534C67.1619 3.29332 68.5112 3.56174 69.1774 4.67767C70.6067 7.06804 68.2076 8.81379 66.6728 10.2615C68.0073 9.42671 69.3966 8.66374 70.8218 8.00432C71.6229 7.63446 72.4367 7.27728 73.2631 6.96871C74.488 6.51219 75.4788 6.65823 76.4844 7.50765C76.9335 7.88808 77.157 8.7189 76.9504 9.27242C76.5498 10.3334 75.9173 10.978 74.8084 11.2845C74.0284 11.5001 73.2294 11.6459 72.4493 11.872C71.1422 12.2482 69.8731 12.7069 68.6419 13.2796C68.7304 13.3346 68.8147 13.3938 68.8927 13.4614C69.8119 13.1634 70.748 12.9055 71.6882 12.6857C73.2477 12.3192 74.8349 12.0715 76.429 11.9166L76.9587 11.8672C78.8699 11.6833 81.1681 11.344 82.3411 13.1782C82.7269 13.7826 82.769 14.7802 82.3411 15.3783C81.5231 16.5281 80.7093 16.7563 79.3558 16.7775C80.6882 16.9191 82.0185 17.0945 83.3425 17.2995C84.255 17.439 85.1676 17.5971 86.0762 17.7726L86.5301 17.8617C87.6369 18.0836 88.8723 18.2125 89.8231 18.855C91.8976 20.2584 90.9236 22.9912 88.6257 23.2828C87.5146 23.4223 86.2813 22.951 85.1914 22.7312C84.1331 22.5177 83.0705 22.3296 82.0038 22.1648C81.4514 22.0781 80.8991 22.0021 80.3446 21.9323C81.4725 22.095 82.5919 22.3254 83.6819 22.6509L83.9847 22.7425C86.0918 23.3863 88.936 24.4116 89.5933 26.6687C89.9918 28.0403 88.9018 29.2366 87.5821 29.3169C86.3551 29.3909 85.3326 28.6575 84.2912 28.1164C83.5322 27.7233 82.7606 27.4295 81.9426 27.178C81.0972 26.9181 80.235 26.7025 79.3664 26.5271C80.1004 26.9325 80.8153 27.378 81.5015 27.8765L81.8169 28.1101C83.6408 29.4725 86.4221 31.5818 85.7796 34.1357C85.5772 34.9409 84.6812 35.7102 83.821 35.6278C81.5821 35.4186 80.3467 33.0282 78.658 31.7474C78.2174 31.4135 77.7346 31.0838 77.2286 30.7625C79.788 33.8229 81.8246 37.3609 83.3741 41.0151C86.7796 49.0544 87.8243 56.4995 87.8494 65.1436L87.8499 65.4113C87.8541 70.1793 87.7466 75.0341 87.2827 79.781C86.8527 84.1665 86.0642 88.495 84.0804 92.4664C80.7557 99.1259 74.2771 104.312 67.1324 106.286C59.1823 108.484 50.2961 106.766 43.7839 101.694C42.1226 100.4 44.3257 97.5917 46.0228 98.7856C52.8007 103.552 61.5667 105.061 69.346 101.835C75.5168 99.2781 80.4858 93.7766 82.592 87.4424C83.9325 83.4128 84.3228 79.1161 84.801 74.9165L84.833 74.6367C85.339 70.2449 85.632 65.8234 85.6278 61.402C85.6215 53.191 84.4451 46.432 80.8421 38.984C79.1471 35.4756 76.9482 32.2316 74.3214 29.3845C73.5245 29.5473 72.677 29.319 71.8717 29.2323C71.4606 29.188 71.0495 29.1457 70.6384 29.1076C71.0583 29.3799 71.4702 29.6629 71.875 29.9525L72.406 30.3364C74.0676 31.5294 76.1758 32.8882 75.7487 35.1945C75.6327 35.818 75.0129 36.3908 74.4121 36.5324C72.2343 37.0523 70.7374 34.9303 69.2659 33.6707C67.9862 32.5759 66.6475 31.5952 65.2835 30.6125C64.9736 30.3905 64.6616 30.1686 64.3474 29.9488C64.6426 30.2937 64.9296 30.6441 65.2097 30.9977L65.6237 31.5237C66.8765 33.0952 68.6825 35.1378 67.5667 37.1749C67.2505 37.7498 66.5758 38.1323 65.9223 38.1196C63.6749 38.0731 62.781 35.5158 61.7269 33.9011C60.8204 32.5167 59.8358 31.2127 58.8176 29.9087C58.5372 29.5515 58.2547 29.1943 57.968 28.8371C53.2477 29.0823 48.5442 29.7079 43.923 30.7076C40.748 31.3945 37.6258 32.2845 34.5267 33.2586L34.2691 33.3407C32.5919 33.8821 30.8638 34.5749 29.6546 35.7631C29.482 36.5817 29.6145 37.445 29.7796 38.2625L29.9083 38.8883C30.4386 41.5049 30.7999 44.0732 30.5295 46.7596C30.2491 49.5304 29.4163 52.0222 28.4002 54.5965C27.9195 55.8096 27.422 55.5898 27.2512 56.8918C27.1204 57.8834 27.2013 58.9071 27.2907 59.9071L27.3653 60.7548C27.5528 62.9755 27.6469 65.3966 26.195 67.2289C25.9694 67.51 25.4866 67.398 25.3264 67.1169C25.2632 67.0049 25.1957 66.8971 25.1219 66.7935C24.422 65.7769 23.3489 65.1978 22.1219 64.9738C21.9659 64.9463 22.027 64.7371 22.1577 64.7202C23.195 64.5976 24.1774 64.8576 25.0123 65.3944C24.6164 64.022 21.5514 64.6894 20.5438 64.9561L20.5091 64.9653C19.2526 65.3035 18.0636 65.853 17.0158 66.6308C14.9076 68.1948 13.689 70.6338 13.7502 73.2608C13.8113 75.8435 15.1416 78.2297 17.4269 79.4661C18.5295 80.0621 19.7839 80.3495 21.032 80.3368C22.3348 80.3242 23.4944 79.7514 24.7993 79.8317C25.5541 79.8782 26.1317 80.6898 25.6953 81.3978C25.4044 81.8712 25.0249 82.2432 24.5864 82.5285C25.6553 84.9992 27.0193 87.3558 28.592 89.5306C29.4627 90.7374 30.4494 91.8512 31.5351 92.8678C32.3826 93.6625 34.2189 94.5819 34.1156 95.907C34.0797 96.3847 33.8331 96.6763 33.3988 96.8539C32.0486 97.4072 30.4067 95.5018 29.5036 94.5832L29.4311 94.51C28.3053 93.3856 27.2786 92.1429 26.3847 90.824C24.7993 88.4823 23.8148 85.8425 23.4079 83.0696C21.2428 83.7227 18.3756 83.1098 16.6089 82.3087C11.0559 79.7937 9.24069 72.2971 12.616 67.305C13.2695 66.3391 14.0875 65.5127 15.0193 64.8449C14.8148 64.7328 14.623 64.5891 14.4522 64.4074C13.5076 63.4014 12.8397 62.0887 12.1769 60.8788L12.0973 60.7341C11.5089 59.6689 10.9538 58.587 10.4335 57.4884L10.24 57.0756C9.07836 54.5711 8.06009 53.4763 7.23156 50.8429C6.43465 48.3025 5.8064 45.7134 5.39952 43.08L5.29139 42.383C5.05607 40.8549 4.83353 39.2209 5.00528 37.6694C3.82257 38.0562 2.63353 38.295 1.46347 37.7138C0.691864 37.3313 0.266004 36.2154 0.529531 35.4143C0.721379 34.8247 1.04183 34.3618 1.44871 33.9983C1.20627 33.8757 0.978582 33.7193 0.778301 33.546L0.603319 33.394C-0.105043 32.7767 -0.15564 31.6037 0.274437 30.8302C0.316601 30.7562 0.358765 30.6801 0.398821 30.6061C0.807816 29.8727 1.65321 29.393 2.48807 29.4057C2.62299 29.4078 2.75792 29.4078 2.89495 29.4057C2.50493 29.319 2.12334 29.1858 1.76073 28.9618C0.124753 27.9537 0.331358 25.2209 2.31098 24.739C3.14161 24.5383 4.05869 24.6207 4.97366 24.8363C4.93993 24.8172 4.90619 24.7982 4.87246 24.7771C4.18097 24.3523 3.60121 23.5217 3.66656 22.6699C3.73824 21.7273 4.04182 21.0552 4.87246 20.5606C5.59347 20.1337 6.61385 20.0936 7.33065 20.5606C7.95257 20.9685 8.56185 21.4187 9.14793 21.9027C8.55974 21.1778 8.04955 20.3894 7.84294 19.5525C7.58785 18.5105 8.01371 17.3756 8.94976 16.8261C9.69607 16.3886 10.4845 16.4372 11.1887 16.7754C11.1507 16.228 11.2836 15.67 11.6462 15.1754C12.3883 14.1612 13.7375 13.5776 14.9118 14.3174C15.0657 14.4146 15.2723 14.5815 15.4726 14.7866C15.0826 13.5417 15.4346 12.2356 16.7649 11.6734C17.5766 11.3289 18.675 11.5022 19.3791 12.0961C18.9322 9.67188 22.5014 7.89019 23.8886 10.3947C24.2034 10.9621 24.5149 11.5595 24.7935 12.1706L24.8963 12.4004L24.9069 12.3962L24.836 12.2282L24.7635 12.0601C24.3777 11.1619 23.8865 10.2277 23.7516 9.2534C23.5534 7.81199 24.1943 6.44456 25.7586 6.23321C26.566 6.12331 27.4641 6.49105 28.0059 7.13377C27.7129 4.89747 30.2048 3.27219 31.9989 4.94186C32.8485 5.73231 33.3018 6.88839 33.8415 7.90287C34.1472 8.47563 34.4592 9.04628 34.7649 9.62115C34.8429 9.52816 34.9272 9.43516 35.0158 9.34428C34.5625 7.98319 34.2104 6.58828 33.9132 5.18491C33.6307 3.86186 34.2906 2.48808 35.6525 2.1142C36.89 1.7716 38.4395 2.5369 38.7157 3.85784C38.9097 4.78757 39.1395 5.70716 39.3924 6.62209C39.5653 6.57982 39.7361 6.55023 39.9047 6.5291C39.9188 6.3572 39.9347 6.18436 39.9525 6.01246L40.0189 5.40109C40.1663 4.00418 40.315 2.40955 41.0432 1.22209C42.2849 -0.80687 45.4683 0.0343038 45.5021 2.43313C45.521 3.67376 45.0172 4.90381 44.8422 6.13176C44.7663 6.66648 44.722 7.20753 44.6967 7.74859C45.0361 5.95211 45.5021 4.17888 46.0418 2.43313C46.105 2.22389 46.1725 2.01466 46.2378 1.80542ZM18.7719 71.0819C21.5653 70.6486 24.1184 72.2105 25.7733 74.398C26.0748 74.7974 25.8766 75.3617 25.6047 75.6978C25.4086 75.945 25.1451 75.9746 24.8478 76.0127C24.5063 76.0571 24.0741 75.7802 23.9244 75.4822C22.8598 73.3518 20.9603 72.0055 18.7719 71.177C18.7319 71.1622 18.7192 71.0903 18.7719 71.0819ZM22.6443 32.9111L22.7289 32.82C23.2941 32.2323 22.4008 31.3344 21.8343 31.9235C21.2379 32.5436 20.8416 33.2968 20.4604 34.0602C20.0972 34.7881 21.188 35.431 21.5527 34.7004L21.7188 34.3683C21.9794 33.8519 22.2574 33.3418 22.6443 32.9111ZM14.7994 31.7047C15.6006 31.5695 15.2609 30.3472 14.4632 30.4821C13.4297 30.6566 12.4003 30.8551 11.3666 31.0299C10.5657 31.1651 10.9053 32.3874 11.7031 32.2528C12.7365 32.078 13.766 31.8795 14.7994 31.7047ZM62.5228 23.3604C61.7488 23.1015 61.4168 24.3258 62.1865 24.5833C63.2501 24.939 64.3051 25.3036 65.314 25.7975C66.0429 26.1542 66.6848 25.0609 65.9524 24.7025C64.845 24.1604 63.6903 23.751 62.5228 23.3604ZM14.6173 21.7169C13.8615 21.4139 13.5332 22.6399 14.281 22.9398L17.0133 24.0352C17.7691 24.3383 18.0973 23.1125 17.3495 22.8126L14.6173 21.7169ZM72.0633 18.7395L71.9636 18.6765C71.2784 18.2314 70.6436 19.3287 71.325 19.7715C71.725 20.0313 72.2114 20.2075 72.5777 20.5169L72.6542 20.5854C73.2458 21.1454 74.142 20.2506 73.5488 19.6886C73.1147 19.2779 72.5653 19.0492 72.0633 18.7395Z" fill="#FF781F"/>
</svg>
