<svg width="247" height="251" viewBox="0 0 247 251" fill="none" xmlns="http://www.w3.org/2000/svg">
<path fill-rule="evenodd" clip-rule="evenodd" d="M233.805 155.888C235.969 154.758 238.082 153.53 240.161 152.252C241.626 151.375 240.329 149.168 238.827 149.965C238.059 150.374 237.294 150.786 236.526 151.191C237.131 150.67 237.691 150.104 238.193 149.486L238.158 149.451C240.094 147.716 237.607 144.442 235.406 145.867C233.464 147.275 231.504 148.712 229.275 149.639C224.659 151.598 219.567 151.922 214.612 151.978C212.798 151.842 211.066 152.156 209.307 152.507C209.997 149.738 211.723 147.648 212.639 144.966C213.314 142.26 209.408 140.416 208.024 143.018C207.684 143.657 207.36 144.303 207.044 144.953C204.052 147.675 199.056 147.435 196.038 150.358C194.319 151.884 193.478 153.955 193.146 156.033C192.92 157.445 193.271 158.859 192.418 160.109C188.294 165.944 181.779 175.167 178.469 181.589C176.127 166.33 169.871 147.456 163.408 133.503C161.271 129.041 158.826 124.681 155.616 120.899C155.98 119.637 154.696 117.398 153.879 118.087C151.366 115.016 146.923 114.221 143.35 112.694C138.528 110.631 134.526 106.343 132.559 101.469C130.032 92.1882 123.811 91.0093 115.183 91.4195C106.926 91.4091 100.817 94.9421 99.015 103.351C95.3548 109.733 86.7127 108.678 80.4953 110.367C75.9387 111.409 71.5167 113.019 67.3141 115.063C62.639 110.626 45.895 129.245 44.373 134.037C45.269 134.21 46.1595 134.42 47.0419 134.674C47.8279 134.902 47.4979 136.089 46.7052 135.899C45.7188 135.662 44.726 135.499 43.7286 135.386C43.6982 135.481 43.6716 135.576 43.6517 135.67C43.5398 135.662 43.428 135.653 43.316 135.645C43.5643 135.774 43.8032 135.924 44.036 136.118C44.5988 136.585 43.8662 137.488 43.2681 137.115C42.7046 136.693 41.9667 136.76 41.2908 136.618C41.2507 138.009 36.2916 136.453 35.5213 135.993C32.0977 135.564 28.5757 136.024 25.3796 134.372C21.127 133.476 16.8425 132.486 12.6376 131.345C11.5245 131.779 10.4783 133.332 11.3624 134.472C11.8598 134.991 11.2205 135.838 10.5943 135.469C8.49409 134.232 6.86987 132.302 5.49282 130.222C4.84465 129.568 3.69409 129.709 2.82325 129.437C2.70684 129.647 2.63817 129.88 2.63923 130.119C-1.05478 130.727 1.58036 134.764 3.4374 136.021C2.45226 136.663 2.41487 137.919 2.50106 138.969C2.29233 139.343 2.22261 139.806 2.4043 140.225C3.09895 141.826 4.60127 143.175 5.7436 144.472C7.00487 145.905 8.12944 147.346 9.66409 148.507C15.5136 152.968 22.5727 155.462 29.8145 156.437C32.3859 156.832 36.0845 157.437 37.6767 159.612C37.286 162.193 36.5688 164.669 35.9181 167.186C35.0081 170.528 35.07 174.026 35.058 177.432C34.9308 177.33 34.6866 177.351 34.6502 177.546C34.4386 178.958 34.2812 180.402 33.4232 181.589C32.6711 183.795 32.1706 186.148 31.8894 188.466C30.7629 199.456 30.494 210.769 33.0338 221.587C34.0139 225.6 35.6079 229.414 37.7798 232.926C38.4273 233.974 39.4684 234.281 40.4033 234.075C43.5322 235.701 47.4738 236.222 50.8462 235.809C62.3436 232.553 58.3376 240.394 74.4579 237.993C102.283 234.447 130.404 241.415 158.17 237.324C158.854 242.608 167.806 241.092 170.916 238.859C180.24 231.924 184.87 209.97 189.549 198.833C192.766 190.055 198.152 174.507 205.205 168.617C207.32 166.962 209.877 166.091 212.435 165.387C221.982 162.926 231.565 160.599 241.13 158.206C242.752 157.807 242.461 155.039 240.726 155.217C238.424 155.452 236.114 155.666 233.805 155.888Z" fill="white"/>
<path fill-rule="evenodd" clip-rule="evenodd" d="M21.2806 154.241C20.6341 154.161 20.0003 153.931 19.3707 153.749C18.4095 153.468 17.4672 153.14 16.5398 152.766C14.6257 151.999 12.7686 151.092 11.0278 149.983C8.21577 148.189 5.73126 145.889 3.85732 143.12L3.72867 142.927C2.65884 141.297 0.685434 137.677 2.89817 136.44C1.47205 135.247 0.124159 133.106 0.200216 131.454C0.307962 129.116 3.17275 129.148 4.65374 130.139C5.62345 130.788 6.35022 131.697 7.07909 132.591C7.88613 133.584 8.7481 134.531 9.64388 135.442C9.88155 135.683 10.1216 135.919 10.3659 136.151L10.6115 136.382C10.5735 136.292 10.5397 136.199 10.5101 136.103C10.0157 134.563 10.6052 132.557 12.1453 131.851C13.0878 131.419 14.0667 131.683 14.98 132.05L15.12 132.107C16.3496 132.616 17.5939 133.066 18.8742 133.428C24.0925 134.901 29.539 135.146 34.8862 135.882C36.946 136.167 39.0439 136.526 41.0932 137.054C41.8749 133.734 43.7911 130.551 45.8699 127.933C55.8249 115.406 72.2425 111.266 87.2615 108.586C88.6305 108.343 89.7651 110.156 90.5616 109.727C92.0721 108.915 93.401 107.766 94.5672 106.517C97.0538 103.851 98.8179 100.717 100.89 97.7477C101.915 96.281 104.273 97.5935 103.322 99.168L102.856 99.9375C100.939 103.089 98.8152 106.338 96.0651 108.782C94.6031 110.08 92.9806 111.105 91.1257 111.745C89.7207 112.229 87.7496 112.637 86.2116 112.168L86.027 111.899C86.0881 111.989 86.1497 112.079 86.2116 112.168C90.2257 117.986 95.2622 122.911 100.569 127.559C105.926 132.247 111.705 136.446 117.519 140.551L118.003 140.893C127.474 133.982 135.475 124.967 141.088 114.668C139.912 114.527 138.747 113.772 137.742 113.21C136.531 112.53 135.393 111.718 134.505 110.636C132.572 108.279 132.824 105.242 132.475 102.383C132.454 102.205 132.688 102.161 132.796 102.249C133.844 103.12 134.212 104.547 134.649 105.779C135.131 107.134 135.676 108.25 136.781 109.203C137.809 110.091 139.064 110.744 140.283 111.325C140.912 111.623 144.033 112.389 144.388 113.024C149.78 111.758 155.032 113.946 159.027 117.636C162.887 121.201 165.72 125.836 168.221 130.412C170.89 135.294 173.076 140.383 174.961 145.614C176.871 150.923 178.335 156.349 179.14 161.937C179.819 166.648 180.236 171.433 180.505 176.197L180.538 176.793C184.527 170.53 188.615 164.334 192.788 158.192C191.839 155.658 192.889 153.071 194.666 151.114C196.635 148.947 199.358 147.941 201.963 146.77L202.305 146.615C203.561 146.042 204.812 145.412 205.897 144.553C206.94 143.725 207.707 142.583 208.806 141.82C210.403 140.709 213.302 140.946 213.376 143.374C213.414 144.708 212.841 146.17 212.317 147.368C211.723 148.723 210.923 149.951 209.972 151.08C209.928 151.132 209.88 151.174 209.831 151.207L209.795 151.23C211.109 151.448 212.433 151.623 213.783 151.684C216.507 151.809 219.259 151.608 221.926 151.033C224.655 150.446 227.3 149.491 229.755 148.159C231.853 147.022 233.797 145.551 236.18 145.204C236.4 145.17 236.621 145.149 236.85 145.137C237.23 145.115 237.61 145.564 237.46 145.94C237.378 146.147 237.291 146.352 237.196 146.559C236.372 148.374 235.108 150.136 233.532 151.472L233.41 151.574C233.966 151.382 234.513 151.166 235.052 150.923C238.219 149.497 241.092 147.341 244.487 146.474C244.647 146.432 244.81 146.394 244.973 146.358C246.023 146.132 246.576 147.273 245.959 148.055C245.86 148.182 245.761 148.307 245.657 148.432C244.143 150.312 242.471 152.058 240.629 153.626C239.998 154.163 239.347 154.683 238.683 155.18C238.404 155.391 238.123 155.597 237.839 155.799L237.699 155.898C238.031 155.664 238.358 155.425 238.683 155.18C240.762 154.55 242.812 153.804 244.816 152.978C245.613 152.65 246.232 153.457 246.316 154.121C246.6 156.345 244.132 157.953 242.526 159.022C240.916 160.096 239.144 160.912 237.329 161.567C233.84 162.828 230.175 163.401 226.516 163.915L224.739 164.162C217.704 165.146 210.357 166.323 205.309 171.799C202.481 174.867 200.566 178.68 198.815 182.431C197.066 186.179 195.53 190.025 194.072 193.893C192.562 197.896 191.245 201.973 189.847 206.016C188.562 209.728 187.028 213.393 185.508 217.021L185.269 217.594C182.043 225.304 178.189 232.566 172.819 239.004C171.933 240.067 170.503 238.558 171.321 237.505C176.938 230.26 180.847 221.711 184.073 213.183C185.541 209.303 186.771 205.329 188.182 201.428L189.022 199.11C190.143 196.02 191.274 192.934 192.454 189.869C193.947 185.991 195.589 182.159 197.467 178.452L197.666 178.061C199.505 174.485 201.69 170.96 204.697 168.254C210.109 163.381 217.31 162.211 224.274 161.285L226.464 160.997C229.408 160.605 232.36 160.173 235.223 159.386C236.875 158.934 238.489 158.354 240.006 157.555C240.61 157.238 241.2 156.89 241.77 156.509C240.143 156.987 238.493 157.378 236.814 157.684C235.992 157.834 235.178 157.947 234.367 158.025C232.278 158.232 230.205 158.223 228.065 158.111C227.883 158.101 227.824 157.816 228.019 157.78C229.509 157.514 231.001 157.183 232.487 156.823L232.933 156.714C232.941 156.467 233.038 156.205 233.241 155.956C233.981 155.055 235.386 154.594 236.359 153.958C237.38 153.293 238.369 152.574 239.311 151.805C240.173 151.101 241.001 150.357 241.797 149.579L242.036 149.345C241.957 149.423 241.877 149.501 241.797 149.579C239.647 150.573 237.608 151.847 235.362 152.633C233.577 153.261 231.705 153.684 229.817 153.834L229.699 153.843L229.582 153.851C227.611 153.992 225.627 153.935 223.685 154.362C223.468 154.411 223.4 154.119 223.595 154.037C225.291 153.331 227.055 153.058 228.838 152.728C228.876 152.589 228.974 152.464 229.143 152.384L229.599 152.166C230.957 151.513 232.224 150.854 233.353 149.795C234.35 148.858 235.181 147.764 235.804 146.55C233.309 147.098 231.118 148.989 228.849 150.053C226.377 151.213 223.762 152.046 221.074 152.519L220.768 152.572C215.746 153.41 209.707 153.303 205.208 150.691C205.064 150.606 205.168 150.414 205.316 150.437C206.592 150.646 207.855 150.894 209.119 151.114C208.871 150.887 208.762 150.482 209.047 150.156C210.181 148.855 211.079 147.368 211.652 145.741L211.762 145.423C212.026 144.669 212.473 143.497 212.017 142.816C211.582 142.167 210.557 142.256 209.945 142.531C208.671 143.106 207.823 144.541 206.75 145.407C205.58 146.354 204.249 147.056 202.886 147.683L202.598 147.814C200.241 148.875 197.723 149.768 195.87 151.64C194.873 152.646 194.015 153.903 193.728 155.313C193.597 155.96 193.597 156.626 193.77 157.266C193.907 157.767 194.195 158.076 194.03 158.585C193.814 159.242 193.052 160.028 192.659 160.614C192.202 161.29 191.748 161.969 191.294 162.647C190.388 164.004 189.485 165.365 188.583 166.724C186.779 169.446 184.994 172.181 183.223 174.924C182.647 175.818 182.073 176.712 181.501 177.607L180.644 178.951L180.191 179.659L179.419 180.874C179.446 180.986 179.444 181.104 179.408 181.208C179.276 181.583 179.03 181.839 178.723 182.025L178.669 182.057C174.16 189.186 169.723 196.362 165.242 203.508C165.004 205.688 164.78 207.872 164.585 210.055C164.144 214.996 163.842 219.951 163.745 224.911C163.698 227.312 163.89 229.727 163.994 232.126C164.045 233.271 164.114 234.415 164.205 235.558L164.271 236.368C164.36 237.482 164.411 238.587 164.011 239.648C163.656 240.58 162.574 240.789 161.934 240.079C153.583 239.743 145.225 239.488 136.867 239.329C121.907 239.042 106.941 239.086 91.9791 239.376C84.4643 239.521 76.9474 239.726 69.4348 239.98C65.7334 240.103 62.0298 240.276 58.3263 240.327C56.331 240.354 53.1906 239.627 53.0296 237.381L53.0256 237.313C52.7763 237.38 52.5186 237.435 52.2545 237.475C52.1369 237.494 52.024 237.488 51.9197 237.464L51.8679 237.45C48.8935 238.357 45.1311 237.063 42.3047 236.309L42.0714 236.247C39.3735 235.544 37.2059 234.538 35.4376 232.302C32.3426 228.385 31.2862 223.127 30.7369 218.281C30.2214 213.72 30.1918 209.074 30.8193 204.522C30.4496 200.813 30.8108 196.985 31.2313 193.297C31.4383 191.473 31.6813 189.651 31.9728 187.838C32.1355 186.825 32.3489 185.824 32.5665 184.824C32.6534 184.424 32.7257 183.994 32.8358 183.579L32.8855 183.401C32.5474 183.446 32.1777 183.372 31.8207 183.176C30.9714 182.708 30.7242 181.764 30.7094 180.859C30.6629 178.133 30.9883 175.328 31.2756 172.619C31.565 169.913 31.9622 167.197 32.4819 164.526L32.6164 163.837C33.0102 161.839 33.4608 159.776 34.2545 157.898C31.2736 157.391 28.301 156.852 25.4088 155.934C23.9975 155.484 22.6074 154.924 21.2806 154.241ZM176.871 182.615C176.824 182.626 176.78 182.639 176.735 182.651C175.544 182.985 174.34 183.268 173.14 183.573C171.065 184.095 169.037 184.678 167.108 185.585C166.704 190.687 166.105 195.772 165.535 200.86L165.422 201.878C166.297 200.255 167.192 198.644 168.128 197.053C170.978 192.202 173.894 187.39 176.871 182.615ZM33.6122 183.121C33.6186 183.727 33.4918 184.357 33.4242 184.94C33.3144 185.887 33.2256 186.838 33.1137 187.785C32.8855 189.687 32.6911 191.591 32.5496 193.502C32.4587 194.722 32.3996 195.945 32.3468 197.169C33.5447 192.69 35.1313 188.309 36.6397 183.921C36.3876 183.895 36.1298 183.833 35.864 183.763L35.4163 183.642C35.1524 183.574 34.2962 183.363 33.6122 183.121ZM180.644 178.951L180.652 179.151C180.684 179.864 180.257 180.265 179.74 180.369C180.04 179.895 180.342 179.422 180.644 178.951ZM43.5735 145.194C44.8348 145.306 46.0707 145.574 47.2496 146.039L47.3633 146.084C48.2353 146.42 49.5101 146.843 49.7953 147.774C49.8756 148.039 49.6601 148.256 49.4129 148.277C48.4665 148.353 47.351 147.339 46.4742 146.996C45.4981 146.616 44.4756 146.333 43.4404 146.183C41.1143 145.842 38.689 146.1 36.5003 146.948C36.3714 146.999 36.2911 146.794 36.4073 146.732C38.6129 145.532 41.0658 144.972 43.5735 145.194ZM16.8461 151.238C16.7002 151.109 16.5545 150.974 16.4108 150.839C15.2781 149.767 14.2751 148.516 13.5324 147.141L13.3369 146.769C12.732 145.598 11.9892 143.928 13.4108 143.084C14.2601 142.579 15.2826 142.706 16.2291 143.012C16.2904 143.031 16.3516 143.053 16.4129 143.074C16.8354 143.222 17.2432 143.399 17.6066 143.568C19.1847 144.293 20.577 145.348 22.0347 146.278C23.6143 147.286 25.1739 147.931 26.9969 148.308L27.1685 148.343C28.8798 148.681 30.7347 148.899 31.9284 150.306C32.2284 150.661 31.9538 151.327 31.4362 151.152C28.1362 150.038 24.6439 149.793 21.6143 147.964C20.3594 147.208 19.1721 146.339 17.8897 145.623C17.2094 145.242 16.507 144.909 15.7585 144.681L15.3496 144.56C15.1101 144.49 14.8242 144.421 14.6319 144.49C14.266 144.617 14.3828 144.813 14.496 145.155L14.5073 145.189C15.3967 147.941 17.9319 150.245 20.2812 151.769C20.82 152.12 21.3714 152.441 21.9333 152.739C25.7373 154.767 29.9937 155.711 34.1741 156.832C34.1741 156.832 36.5911 157.507 37.3918 157.761C38.2834 157.686 39.2996 158.002 39.9714 158.378C40.6242 158.743 41.1503 159.234 41.5475 159.811C41.5475 159.811 41.9299 160.13 41.9996 160.624C42.2003 161.083 42.3355 161.577 42.4031 162.093C42.4411 162.396 42.3651 162.628 42.2214 162.793C42.6535 169.428 40.8621 176.025 38.8424 182.331L38.6423 182.952L38.5137 183.346C36.3355 190.032 33.8362 196.668 32.7207 203.638C31.9749 208.294 31.9982 213.113 32.5454 217.79L32.584 218.113C33.1231 222.535 34.1604 227.496 36.9714 231.055C38.4052 232.871 40.1039 233.678 42.2757 234.263L42.3947 234.295C44.3595 234.812 46.3876 235.546 48.4137 235.768C50.294 235.973 51.87 235.273 53.5623 234.618L53.5643 234.616C57.1284 231.461 58.7468 226.866 59.9425 222.229C63.0418 210.228 62.6573 197.771 60.8996 185.595C59.9827 179.234 58.7362 172.927 57.4939 166.623C56.8728 163.471 56.2031 160.326 55.6475 157.165L55.3175 155.304C55.1354 154.27 54.9593 153.235 54.8087 152.196C54.6059 150.799 54.5446 149.425 54.4749 148.019C52.7679 145.189 50.2897 142.858 47.4186 141.186C45.363 139.988 43.1869 139.158 40.9411 138.555C34.5207 136.824 27.5214 136.947 21.0608 135.615C18.8905 135.169 16.8303 134.505 14.7712 133.71L14.4904 133.601C13.546 133.233 12.5827 133.028 12.1136 134.142C11.7798 134.935 11.9784 135.759 12.4791 136.425C13.7066 138.056 16.1742 138.813 18.0312 139.401C19.1488 139.756 20.2897 140.037 21.4432 140.246C22.5967 140.455 23.7545 140.508 24.8615 140.916C25.2883 141.072 25.3728 141.751 24.8615 141.871C23.4587 142.199 22.0474 141.918 20.6531 141.645C19.1214 141.343 17.6129 140.914 16.1467 140.371C15.8763 140.271 15.5964 140.166 15.3114 140.054L15.0967 139.969C15.3186 140.13 15.5404 140.288 15.7643 140.447C15.8235 140.489 15.7876 140.601 15.7094 140.573C12.2619 139.287 9.12511 136.965 6.69507 134.219L6.57416 134.081C5.71853 133.1 3.76853 130.133 2.12486 130.959C0.581428 131.734 3.21245 134.722 4.21232 135.944L4.32843 136.087C5.46505 136.116 6.56575 136.824 7.48688 137.395C9.08617 138.386 10.7573 139.24 12.4602 140.039C15.8447 141.63 19.4383 142.753 22.7869 144.424C22.8313 144.448 22.7975 144.505 22.7552 144.498C20.6235 144.158 18.5151 143.615 16.4552 142.941L16.3633 142.912L16.2714 142.881C14.9848 142.459 13.7151 141.981 12.4665 141.472C11.0785 140.905 9.72209 140.269 8.40589 139.549C7.21434 138.898 5.89181 137.725 4.51012 137.551C4.36223 137.532 4.23124 137.53 4.11716 137.541C2.53056 137.674 3.84253 140.303 4.28619 141.089C5.01084 142.381 5.88549 143.573 6.88901 144.661C8.92352 146.872 11.3891 148.624 14.0574 149.987C14.9679 150.452 15.8996 150.862 16.8461 151.238Z" fill="#C25621"/>
<path fill-rule="evenodd" clip-rule="evenodd" d="M123.526 87.3487L121.294 78.8235L121.654 78.8791C125.195 79.436 126.965 80.0077 126.965 80.5941L126.964 80.6341C126.917 81.2946 125.771 83.5327 123.526 87.3487ZM144.075 80.6659L143.285 86.7616L139.167 82.2464L144.075 80.6659Z" fill="white"/>
<path fill-rule="evenodd" clip-rule="evenodd" d="M120.81 65.4911C125.419 65.4911 129.155 62.0847 129.155 57.8825C129.155 53.6804 125.419 50.2739 120.81 50.2739C116.201 50.2739 112.465 53.6804 112.465 57.8825C112.465 62.0847 116.201 65.4911 120.81 65.4911Z" fill="white"/>
<path fill-rule="evenodd" clip-rule="evenodd" d="M133.169 57.6712C137.369 57.6712 140.775 54.312 140.775 50.1682C140.775 46.0245 137.369 42.6653 133.169 42.6653C128.969 42.6653 125.563 46.0245 125.563 50.1682C125.563 54.312 128.969 57.6712 133.169 57.6712Z" fill="white"/>
<path fill-rule="evenodd" clip-rule="evenodd" d="M143.521 64.0118C146.905 64.0118 149.648 60.9838 149.648 57.2486C149.648 53.5133 146.905 51.02 143.521 51.02C140.137 51.02 137.394 53.5133 137.394 57.2486C137.394 60.9838 140.137 64.0118 143.521 64.0118Z" fill="white"/>
<path fill-rule="evenodd" clip-rule="evenodd" d="M121.372 78.5255C122.905 78.2296 124.811 78.8742 126.339 79.1566L126.453 79.1771C128.306 79.5009 130.155 79.8923 132.028 80.0834C133.817 80.2662 135.644 80.299 137.432 80.0933C138.291 79.9944 139.143 79.8262 139.978 79.6005C140.335 79.5039 140.689 79.3961 141.039 79.2765L141.078 79.2613C141.335 79.1552 142.03 78.7551 142.022 78.978C142.217 78.7525 142.487 78.5925 142.782 78.5147C143.199 78.4051 143.735 78.508 144.084 78.803C144.538 78.4433 145.219 78.7014 145.523 79.1321C146.045 79.8708 145.875 80.7366 145.808 81.5936L145.802 81.6692C145.745 82.4769 145.657 83.2792 145.549 84.0809L145.501 84.4245C145.333 85.6104 145.287 87.5662 143.85 87.9549C142.714 88.2626 141.675 87.0932 140.942 86.1652L140.541 85.6512C140.067 85.0486 139.636 84.4283 139.288 83.7433C139.13 83.4316 138.977 83.1123 138.845 82.7887C138.828 82.7479 138.816 82.7113 138.803 82.6745C136.696 82.9582 134.54 82.9176 132.428 82.639C131.09 82.4626 129.773 82.2077 128.475 81.8653L127.89 82.9239C127.205 84.1584 126.51 85.3892 125.779 86.5957L125.723 86.6876C125.039 87.7758 123.894 88.8657 122.541 88.0507C121.329 87.3211 121.278 85.6616 121.15 84.4233C121.065 83.5961 120.996 82.7632 120.963 81.9315L120.951 81.5751C120.929 80.7686 120.798 79.8338 121.108 79.0795C121.153 78.9696 121.311 78.885 121.406 79.0006C122.053 79.7881 122.249 81.0087 122.529 81.9752C122.84 83.0505 123.291 84.225 123.453 85.3405L123.498 85.2619C123.658 84.9589 123.82 84.6576 123.984 84.3567L124.474 83.454C124.914 82.639 125.361 81.8291 125.813 81.0212C125.297 80.8273 124.786 80.619 124.277 80.4073L123.122 79.9242C122.462 79.6454 121.79 79.3308 121.294 78.8235C121.206 78.7337 121.236 78.5515 121.372 78.5255ZM143.285 81.503C142.146 81.9659 140.969 82.2998 139.771 82.5213C139.848 82.6006 139.925 82.6798 139.997 82.7631C140.279 83.0896 140.578 83.4033 140.879 83.7134L141.06 83.8991C141.521 84.3723 142.213 85.1516 142.92 85.6045L142.958 85.4C142.965 85.3648 142.969 85.3342 142.972 85.3105L143.047 84.6382C143.06 84.5261 143.071 84.414 143.083 84.3017C143.143 83.6954 143.192 83.0877 143.243 82.4805C143.269 82.1605 143.275 81.8319 143.285 81.503ZM129.816 42.4312C132.527 41.273 135.744 41.8199 138.078 43.5694C140.467 45.3597 141.512 48.2704 141.65 51.1744C143.54 49.5605 146.261 50.7821 147.852 52.2943C149.688 54.0394 150.617 56.6731 150.189 59.1725C149.762 61.6635 147.96 63.8611 145.523 64.6019C144.356 64.9563 143.056 64.9643 141.883 64.6346C141.485 64.5224 140.996 64.3487 140.545 64.1067C140.571 64.2102 140.597 64.314 140.622 64.4174C141.207 66.8963 141.539 69.6827 140.661 72.1342C139.249 76.0735 134.234 78.2788 131.103 74.7822C129.873 73.4095 128.918 71.2596 128.992 69.3881C129.031 68.4047 129.588 67.267 130.738 67.3336C131.629 67.385 132.052 68.1314 131.824 68.9213L131.81 68.9669C131.327 70.477 132.152 72.659 133.348 73.6889C135.181 75.2683 137.697 73.8939 138.699 72.0418C139.868 69.8833 139.725 67.1159 139.352 64.7676C138.985 62.4617 138.167 60.3527 137.299 58.2191C137.207 58.2358 137.114 58.2512 137.018 58.2641C135.292 58.4985 131.779 58.5868 129.872 57.3357C130.076 59.2668 129.674 61.2547 128.578 62.8899C127.356 64.7122 125.515 65.6766 123.372 65.9721C121.291 66.2595 118.879 66.3176 116.824 65.8243C112.449 64.7739 110.906 59.3703 112.23 55.4696C113.012 53.1623 115.196 51.0871 117.624 50.5629C118.875 49.7399 120.554 49.4962 121.998 49.6085C124.153 49.7765 126.277 50.7083 127.72 52.3448C128.272 52.97 128.726 53.6778 129.075 54.4353C129.193 54.3427 129.33 54.2732 129.484 54.2368C129.726 54.1802 129.937 54.1675 130.173 54.2508C130.291 54.2924 130.461 54.4395 130.563 54.535L130.796 54.809C131.082 55.1422 131.353 55.4216 131.862 55.6288C133.281 56.2064 135.204 56.3317 136.711 56.2136C140.556 55.9126 140.072 50.8176 139.125 48.2C138.003 45.0991 134.788 43.1701 131.516 43.7209C130.111 43.9574 128.77 44.7058 127.741 45.6837C126.593 46.7755 126.101 48.0944 125.412 49.4764C125.371 49.5582 125.23 49.5404 125.213 49.4502C124.647 46.5361 127.331 43.4931 129.816 42.4312ZM109.337 65.9255C109.22 65.7883 109.373 65.5471 109.541 65.6608C110.766 66.4938 112.129 67.0949 113.611 67.2574C114.307 67.3335 115.008 67.3388 115.701 67.232C116.292 67.1407 116.824 66.9607 117.413 67.1234C117.727 67.21 117.784 67.5742 117.592 67.8025C116.702 68.8628 114.51 68.5796 113.314 68.2953C111.768 67.928 110.367 67.1365 109.337 65.9255ZM150.579 63.9895C151.18 63.6164 151.897 64.3551 151.541 64.9517C150.627 66.4826 147.979 66.6073 146.443 66.2408C146.323 66.2124 146.351 66.0237 146.472 66.0271C147.355 66.0489 148.153 65.8791 148.914 65.4184C149.563 65.0247 149.951 64.3784 150.579 63.9895ZM121.22 51.7524L121.1 51.7535C119.695 51.7761 118.409 52.3119 117.056 52.5951C116.943 52.6187 116.831 52.6067 116.729 52.5695C115.081 53.6696 113.945 55.3993 113.79 57.6753C113.684 59.2518 114.068 60.9694 115.004 62.2631C116.069 63.7355 117.785 63.9627 119.474 64.0066L119.646 64.0105C122.84 64.0729 126.354 63.8841 127.492 60.3119C128.335 57.6681 127.435 54.4585 125.088 52.8749C123.948 52.1058 122.587 51.7511 121.22 51.7524ZM146.953 53.6484L146.859 53.539C145.606 52.1012 143.62 50.7916 141.662 51.5157L141.667 51.7579C141.668 51.7983 141.668 51.8386 141.668 51.879C141.662 54.6557 140.587 57.2471 137.943 58.0619C138.652 59.074 139.222 60.1971 139.679 61.3627C139.84 61.2575 140.035 61.1907 140.263 61.1676C141.193 61.0734 141.727 61.9477 142.534 62.2739C143.289 62.5795 144.146 62.6583 144.944 62.5004C146.688 62.1553 147.912 60.6503 148.341 58.9802C148.826 57.0922 148.185 55.1129 146.953 53.6484ZM120.395 55.9854C120.976 55.0022 122.412 55.1445 122.987 56.0113L123.015 56.0545L123.021 56.0464C123.979 57.2888 123.516 59.2509 122.124 59.9494C121.008 60.5093 119.589 60.3624 118.847 59.2725C118.681 59.0282 118.574 58.7407 118.535 58.4497C118.508 58.2517 118.523 58.0538 118.568 57.8571L118.557 57.9031C118.579 57.8038 118.613 57.6482 118.623 57.6111C118.721 57.2103 118.956 56.7805 119.25 56.4903C119.553 56.1914 119.974 56.0097 120.395 55.9854ZM144.303 54.9641C144.819 54.9641 145.276 55.1797 145.648 55.5214C146.178 56.0078 146.251 56.7078 146.137 57.372C146.102 57.5747 146.054 57.7706 146.003 57.9701L145.96 58.1506C145.952 58.1806 145.944 58.2103 145.935 58.2396C145.903 58.3633 145.853 58.4768 145.793 58.5854C145.572 59.4061 144.68 59.8135 143.894 59.6345C143.523 59.5502 143.154 59.2429 142.966 58.9208C142.904 58.8147 142.86 58.709 142.829 58.6029L142.676 58.2396C142.647 58.1525 142.629 58.0591 142.606 57.9701C142.555 57.7708 142.506 57.5745 142.47 57.372C142.349 56.6856 142.445 56.035 142.959 55.5214C143.304 55.1763 143.816 54.9641 144.303 54.9641ZM132.954 47.8451C133.848 47.725 134.759 48.1418 135.221 48.9321C135.623 49.619 135.621 50.5432 135.221 51.2301L135.187 51.2882C134.45 52.5533 132.731 52.7157 131.697 51.7382L131.647 51.6908C130.982 51.0625 130.832 50.0203 131.176 49.2041C131.491 48.4576 132.151 47.9531 132.954 47.8451Z" fill="#C25621"/>
<path fill-rule="evenodd" clip-rule="evenodd" d="M116.238 1.80542C116.624 0.596496 117.716 -0.130549 118.966 0.0195093C120.073 0.150547 121.257 1.25168 121.123 2.46695C121.097 2.70154 121.064 2.92135 121.023 3.12847L121.029 3.13032L121.034 3.13059L121.007 3.2109C120.924 3.59767 120.811 3.94428 120.642 4.27188C120.427 4.89959 120.22 5.52941 120.016 6.16135C120.311 6.14867 120.612 6.16558 120.918 6.22264C121.234 5.41106 121.553 4.60158 121.869 3.78788C122.208 2.91923 122.447 1.80331 123.117 1.13121C123.975 0.27313 125.463 0.0955953 126.509 0.708511C127.614 1.35524 128.008 2.50499 127.768 3.73716C127.646 4.36567 127.227 4.80307 126.708 5.07789L126.652 5.10671L126.254 6.05356C126.376 6.00072 126.503 5.95211 126.64 5.91195C126.855 5.84855 127.066 5.80839 127.272 5.79149C127.841 4.75798 128.468 3.75407 129.115 2.76918C129.859 1.63634 131.314 1.15446 132.534 1.87094C133.626 2.51133 134.213 4.19368 133.43 5.29904C132.836 6.1381 132.273 6.99407 131.718 7.85849C131.813 7.8754 131.908 7.89653 131.999 7.92401C132.041 7.86695 132.085 7.80988 132.132 7.75282C132.737 7.00041 133.441 6.4361 134.164 5.81051C134.841 5.22295 135.153 4.29935 136.042 3.8534C137.162 3.29332 138.511 3.56174 139.177 4.67767C140.607 7.06804 138.208 8.81379 136.673 10.2615C138.007 9.42671 139.397 8.66374 140.822 8.00432C141.623 7.63446 142.437 7.27728 143.263 6.96871C144.488 6.51219 145.479 6.65823 146.484 7.50765C146.933 7.88808 147.157 8.7189 146.95 9.27242C146.55 10.3334 145.917 10.978 144.808 11.2845C144.028 11.5001 143.229 11.6459 142.449 11.872C141.142 12.2482 139.873 12.7069 138.642 13.2796C138.73 13.3346 138.815 13.3938 138.893 13.4614C139.812 13.1634 140.748 12.9055 141.688 12.6857C143.248 12.3192 144.835 12.0715 146.429 11.9166L146.959 11.8672C148.87 11.6833 151.168 11.344 152.341 13.1782C152.727 13.7826 152.769 14.7802 152.341 15.3783C151.523 16.5281 150.709 16.7563 149.356 16.7775C150.688 16.9191 152.019 17.0945 153.342 17.2995C154.255 17.439 155.168 17.5971 156.076 17.7726L156.53 17.8617C157.637 18.0836 158.872 18.2125 159.823 18.855C161.898 20.2584 160.924 22.9912 158.626 23.2828C157.515 23.4223 156.281 22.951 155.191 22.7312C154.133 22.5177 153.071 22.3296 152.004 22.1648C151.451 22.0781 150.899 22.0021 150.345 21.9323C151.472 22.095 152.592 22.3254 153.682 22.6509L153.985 22.7425C156.092 23.3863 158.936 24.4116 159.593 26.6687C159.992 28.0403 158.902 29.2366 157.582 29.3169C156.355 29.3909 155.333 28.6575 154.291 28.1164C153.532 27.7233 152.761 27.4295 151.943 27.178C151.097 26.9181 150.235 26.7025 149.366 26.5271C150.1 26.9325 150.815 27.378 151.502 27.8765L151.817 28.1101C153.641 29.4725 156.422 31.5818 155.78 34.1357C155.577 34.9409 154.681 35.7102 153.821 35.6278C151.582 35.4186 150.347 33.0282 148.658 31.7474C148.217 31.4135 147.735 31.0838 147.229 30.7625C149.788 33.8229 151.825 37.3609 153.374 41.0151C156.78 49.0544 157.824 56.4995 157.849 65.1436L157.85 65.4113C157.854 70.1793 157.747 75.0341 157.283 79.781C156.853 84.1665 156.064 88.495 154.08 92.4664C150.756 99.1259 144.277 104.312 137.132 106.286C129.182 108.484 120.296 106.766 113.784 101.694C112.123 100.4 114.326 97.5917 116.023 98.7856C122.801 103.552 131.567 105.061 139.346 101.835C145.517 99.2781 150.486 93.7766 152.592 87.4424C153.933 83.4128 154.323 79.1161 154.801 74.9165L154.833 74.6367C155.339 70.2449 155.632 65.8234 155.628 61.402C155.621 53.191 154.445 46.432 150.842 38.984C149.147 35.4756 146.948 32.2316 144.321 29.3845C143.525 29.5473 142.677 29.319 141.872 29.2323C141.461 29.188 141.049 29.1457 140.638 29.1076C141.058 29.3799 141.47 29.6629 141.875 29.9525L142.406 30.3364C144.068 31.5294 146.176 32.8882 145.749 35.1945C145.633 35.818 145.013 36.3908 144.412 36.5324C142.234 37.0523 140.737 34.9303 139.266 33.6707C137.986 32.5759 136.647 31.5952 135.283 30.6125C134.974 30.3905 134.662 30.1686 134.347 29.9488C134.643 30.2937 134.93 30.6441 135.21 30.9977L135.624 31.5237C136.877 33.0952 138.682 35.1378 137.567 37.1749C137.25 37.7498 136.576 38.1323 135.922 38.1196C133.675 38.0731 132.781 35.5158 131.727 33.9011C130.82 32.5167 129.836 31.2127 128.818 29.9087C128.537 29.5515 128.255 29.1943 127.968 28.8371C123.248 29.0823 118.544 29.7079 113.923 30.7076C110.748 31.3945 107.626 32.2845 104.527 33.2586L104.269 33.3407C102.592 33.8821 100.864 34.5749 99.6546 35.7631C99.482 36.5817 99.6145 37.445 99.7796 38.2625L99.9083 38.8883C100.439 41.5049 100.8 44.0732 100.529 46.7596C100.249 49.5304 99.4163 52.0222 98.4002 54.5965C97.9195 55.8096 97.422 55.5898 97.2512 56.8918C97.1204 57.8834 97.2013 58.9071 97.2907 59.9071L97.3653 60.7548C97.5528 62.9755 97.6469 65.3966 96.195 67.2289C95.9694 67.51 95.4866 67.398 95.3264 67.1169C95.2632 67.0049 95.1957 66.8971 95.1219 66.7935C94.422 65.7769 93.3489 65.1978 92.1219 64.9738C91.9659 64.9463 92.027 64.7371 92.1577 64.7202C93.195 64.5976 94.1774 64.8576 95.0123 65.3944C94.6164 64.022 91.5514 64.6894 90.5438 64.9561L90.5091 64.9653C89.2526 65.3035 88.0636 65.853 87.0158 66.6308C84.9076 68.1948 83.689 70.6338 83.7502 73.2608C83.8113 75.8435 85.1416 78.2297 87.4269 79.4661C88.5295 80.0621 89.7839 80.3495 91.032 80.3368C92.3348 80.3242 93.4944 79.7514 94.7993 79.8317C95.5541 79.8782 96.1317 80.6898 95.6953 81.3978C95.4044 81.8712 95.0249 82.2432 94.5864 82.5285C95.6553 84.9992 97.0193 87.3558 98.592 89.5306C99.4627 90.7374 100.449 91.8512 101.535 92.8678C102.383 93.6625 104.219 94.5819 104.116 95.907C104.08 96.3847 103.833 96.6763 103.399 96.8539C102.049 97.4072 100.407 95.5018 99.5036 94.5832L99.4311 94.51C98.3053 93.3856 97.2786 92.1429 96.3847 90.824C94.7993 88.4823 93.8148 85.8425 93.4079 83.0696C91.2428 83.7227 88.3756 83.1098 86.6089 82.3087C81.0559 79.7937 79.2407 72.2971 82.616 67.305C83.2695 66.3391 84.0875 65.5127 85.0193 64.8449C84.8148 64.7328 84.623 64.5891 84.4522 64.4074C83.5076 63.4014 82.8397 62.0887 82.1769 60.8788L82.0973 60.7341C81.5089 59.6689 80.9538 58.587 80.4335 57.4884L80.24 57.0756C79.0784 54.5711 78.0601 53.4763 77.2316 50.8429C76.4347 48.3025 75.8064 45.7134 75.3995 43.08L75.2914 42.383C75.0561 40.8549 74.8335 39.2209 75.0053 37.6694C73.8226 38.0562 72.6335 38.295 71.4635 37.7138C70.6919 37.3313 70.266 36.2154 70.5295 35.4143C70.7214 34.8247 71.0418 34.3618 71.4487 33.9983C71.2063 33.8757 70.9786 33.7193 70.7783 33.546L70.6033 33.394C69.895 32.7767 69.8444 31.6037 70.2744 30.8302C70.3166 30.7562 70.3588 30.6801 70.3988 30.6061C70.8078 29.8727 71.6532 29.393 72.4881 29.4057C72.623 29.4078 72.7579 29.4078 72.895 29.4057C72.5049 29.319 72.1233 29.1858 71.7607 28.9618C70.1248 27.9537 70.3314 25.2209 72.311 24.739C73.1416 24.5383 74.0587 24.6207 74.9737 24.8363C74.9399 24.8172 74.9062 24.7982 74.8725 24.7771C74.181 24.3523 73.6012 23.5217 73.6666 22.6699C73.7382 21.7273 74.0418 21.0552 74.8725 20.5606C75.5935 20.1337 76.6139 20.0936 77.3306 20.5606C77.9526 20.9685 78.5618 21.4187 79.1479 21.9027C78.5597 21.1778 78.0495 20.3894 77.8429 19.5525C77.5878 18.5105 78.0137 17.3756 78.9498 16.8261C79.6961 16.3886 80.4845 16.4372 81.1887 16.7754C81.1507 16.228 81.2836 15.67 81.6462 15.1754C82.3883 14.1612 83.7375 13.5776 84.9118 14.3174C85.0657 14.4146 85.2723 14.5815 85.4726 14.7866C85.0826 13.5417 85.4346 12.2356 86.7649 11.6734C87.5766 11.3289 88.675 11.5022 89.3791 12.0961C88.9322 9.67188 92.5014 7.89019 93.8886 10.3947C94.2034 10.9621 94.5149 11.5595 94.7935 12.1706L94.8963 12.4004L94.9069 12.3962L94.836 12.2282L94.7635 12.0601C94.3777 11.1619 93.8865 10.2277 93.7516 9.2534C93.5534 7.81199 94.1943 6.44456 95.7586 6.23321C96.566 6.12331 97.4641 6.49105 98.0059 7.13377C97.7129 4.89747 100.205 3.27219 101.999 4.94186C102.849 5.73231 103.302 6.88839 103.841 7.90287C104.147 8.47563 104.459 9.04628 104.765 9.62115C104.843 9.52816 104.927 9.43516 105.016 9.34428C104.563 7.98319 104.21 6.58828 103.913 5.18491C103.631 3.86186 104.291 2.48808 105.652 2.1142C106.89 1.7716 108.44 2.5369 108.716 3.85784C108.91 4.78757 109.139 5.70716 109.392 6.62209C109.565 6.57982 109.736 6.55023 109.905 6.5291C109.919 6.3572 109.935 6.18436 109.953 6.01246L110.019 5.40109C110.166 4.00418 110.315 2.40955 111.043 1.22209C112.285 -0.80687 115.468 0.0343039 115.502 2.43313C115.521 3.67376 115.017 4.90381 114.842 6.13176C114.766 6.66648 114.722 7.20753 114.697 7.74859C115.036 5.95211 115.502 4.17888 116.042 2.43313C116.105 2.22389 116.172 2.01466 116.238 1.80542ZM88.7719 71.0819C91.5653 70.6486 94.1184 72.2105 95.7733 74.398C96.0748 74.7974 95.8766 75.3617 95.6047 75.6978C95.4086 75.945 95.1451 75.9746 94.8478 76.0127C94.5063 76.0571 94.0741 75.7802 93.9244 75.4822C92.8598 73.3518 90.9603 72.0055 88.7719 71.177C88.7319 71.1622 88.7192 71.0903 88.7719 71.0819ZM92.6443 32.9111L92.7289 32.82C93.2941 32.2323 92.4008 31.3344 91.8343 31.9235C91.2379 32.5436 90.8416 33.2968 90.4604 34.0602C90.0972 34.7881 91.188 35.431 91.5527 34.7004L91.7188 34.3683C91.9794 33.8519 92.2574 33.3418 92.6443 32.9111ZM84.7994 31.7047C85.6006 31.5695 85.2609 30.3472 84.4632 30.4821C83.4297 30.6566 82.4003 30.8551 81.3666 31.0299C80.5657 31.1651 80.9053 32.3874 81.7031 32.2528C82.7365 32.078 83.766 31.8795 84.7994 31.7047ZM132.523 23.3604C131.749 23.1015 131.417 24.3258 132.187 24.5833C133.25 24.939 134.305 25.3036 135.314 25.7975C136.043 26.1542 136.685 25.0609 135.952 24.7025C134.845 24.1604 133.69 23.751 132.523 23.3604ZM84.6173 21.7169C83.8615 21.4139 83.5332 22.6399 84.281 22.9398L87.0133 24.0352C87.7691 24.3383 88.0973 23.1125 87.3495 22.8126L84.6173 21.7169ZM142.063 18.7395L141.964 18.6765C141.278 18.2314 140.644 19.3287 141.325 19.7715C141.725 20.0313 142.211 20.2075 142.578 20.5169L142.654 20.5854C143.246 21.1454 144.142 20.2506 143.549 19.6886C143.115 19.2779 142.565 19.0492 142.063 18.7395Z" fill="#C25621"/>
<path fill-rule="evenodd" clip-rule="evenodd" d="M135.361 188.562L135.133 188.407C133.903 187.564 132.436 186.479 130.943 187.237C130.24 187.594 129.663 188.171 128.97 188.556C128.273 188.945 127.506 189.243 126.728 189.422C125.437 189.72 123.959 189.765 122.571 189.477L122.592 191.354C123.642 191.787 124.685 192.232 125.729 192.679C126.407 192.448 127.059 192.169 127.744 191.864L128.207 191.656C129.528 191.062 130.861 190.665 132.321 190.853C135.069 191.206 137.146 193.25 139.774 193.931C142.996 194.768 145.903 192.362 148.947 191.768C149.449 191.67 149.967 191.612 150.481 191.603L150.652 191.601L150.728 191.557C151.383 191.172 152.364 190.805 152.82 190.158C153.316 189.456 153.359 188.281 153.521 187.457C153.538 187.374 153.555 187.29 153.57 187.207C153.283 187.207 152.991 187.222 152.695 187.277C151.766 187.448 150.891 187.778 150.025 188.146C148.387 188.841 146.786 189.634 145.062 190.097C143.374 190.551 141.61 190.767 139.871 190.515C138.175 190.27 136.766 189.505 135.361 188.562Z" fill="#21C2B7"/>
<path fill-rule="evenodd" clip-rule="evenodd" d="M135.625 181.963L135.371 181.799C134.699 181.371 133.929 180.927 133.106 181.085C132.371 181.226 131.739 181.812 131.099 182.173C129.694 182.966 128.118 183.399 126.511 183.509C125.173 183.6 123.785 183.437 122.499 183.04L122.543 187.195C123.014 187.345 123.502 187.453 124.015 187.491C125.575 187.607 127.096 187.233 128.403 186.373L129.065 185.933C130.197 185.189 131.259 184.598 132.758 184.87C134.241 185.14 135.485 186.091 136.698 186.92L136.897 187.053C138.289 187.973 139.701 188.567 141.409 188.581C143.253 188.596 145.077 188.082 146.794 187.45C148.499 186.825 150.12 186.075 151.943 185.844C152.501 185.774 153.181 185.753 153.821 185.863C153.906 185.392 153.986 184.923 154.062 184.451C154.227 183.439 154.368 182.429 154.491 181.416C151.256 180.546 148.269 183.363 145.265 184.232C143.522 184.735 141.625 184.728 139.882 184.242C138.269 183.792 137.001 182.857 135.625 181.963Z" fill="#21C2B7"/>
<path fill-rule="evenodd" clip-rule="evenodd" d="M135.633 174.966C134.942 174.833 134.26 175.152 133.673 175.48C132.175 176.31 130.882 177.466 129.185 177.904C127.003 178.466 124.616 177.982 122.448 177.063C122.456 178.345 122.467 179.628 122.478 180.911C122.885 181.066 123.304 181.19 123.73 181.29C125.247 181.636 126.855 181.59 128.349 181.152C129.872 180.706 131.04 179.502 132.568 179.125C134.13 178.739 135.602 179.49 136.861 180.344L137.24 180.602C138.678 181.579 140.074 182.428 141.874 182.594C143.778 182.769 145.432 182.173 147.133 181.383L147.528 181.2C149.682 180.21 152.477 179.084 154.626 180.21C154.795 178.612 154.918 177.014 155 175.414C154.704 175.304 154.398 175.224 154.045 175.222C153.202 175.218 152.317 175.484 151.531 175.761C149.814 176.367 148.214 177.272 146.514 177.921C144.902 178.538 143.116 178.859 141.397 178.582C139.804 178.327 138.608 177.494 137.507 176.353L137.347 176.184C136.865 175.67 136.348 175.105 135.633 174.966Z" fill="#21C2B7"/>
<path fill-rule="evenodd" clip-rule="evenodd" d="M136.894 169.033C136.098 168.613 135.128 168.222 134.207 168.344C133.328 168.46 132.742 169.057 132.201 169.694L131.908 170.043C130.94 171.189 129.987 172.153 128.494 172.624C126.948 173.11 125.308 172.92 123.87 172.208C123.358 171.954 122.883 171.639 122.406 171.329L122.431 174.699C123.386 175.175 124.358 175.604 125.425 175.864C127.394 176.344 129.067 175.989 130.751 174.903L130.927 174.787C132.196 173.954 133.496 172.962 135.063 172.869C136.591 172.778 137.739 173.626 138.745 174.663L138.863 174.786C140.133 176.126 141.415 176.779 143.304 176.625C145.135 176.475 146.849 175.667 148.526 174.97L148.679 174.907C150.213 174.277 151.981 173.628 153.665 173.869C154.068 173.926 154.59 174.051 155.055 174.269C155.122 172.692 155.154 171.113 155.16 169.532C154.203 168.702 152.714 168.564 151.516 168.904C149.64 169.437 148.104 170.811 146.313 171.557C144.724 172.218 143.067 172.366 141.447 171.741C139.774 171.094 138.462 169.862 136.894 169.033Z" fill="#21C2B7"/>
<path fill-rule="evenodd" clip-rule="evenodd" d="M155.055 162.393C152.251 162.49 149.509 164.314 146.832 165.009C143.842 165.786 141.402 164.727 138.738 163.553L138.394 163.401C137.027 162.801 135.559 162.262 134.044 162.507C132.567 162.748 131.262 163.566 129.992 164.306L129.749 164.446C127.436 165.763 125.08 166.665 122.38 166.44C122.395 167.288 122.389 168.133 122.391 168.962C122.834 169.215 123.261 169.503 123.667 169.765L123.812 169.857C125.1 170.662 126.427 171.192 127.962 170.695C129.445 170.213 130.142 168.921 131.16 167.858C132.096 166.882 133.317 166.288 134.686 166.345C136.159 166.404 137.551 167.053 138.768 167.846C139.985 168.638 141.162 169.663 142.586 170.061C145.78 170.948 148.516 167.569 151.537 167.043C152.805 166.821 154.203 167.102 155.16 167.867C155.15 166.045 155.11 164.219 155.055 162.393Z" fill="#21C2B7"/>
<path fill-rule="evenodd" clip-rule="evenodd" d="M130.924 161.628C130.529 161.642 130.134 161.659 129.739 161.676C128.277 161.74 126.815 161.812 125.353 161.894C124.341 161.949 123.096 162.26 122.104 161.951C122.078 162.052 122.044 162.15 122 162.245C122.15 162.993 122.243 163.767 122.3 164.549C123.217 164.648 124.149 164.614 125.053 164.426C127.223 163.976 128.985 162.606 130.924 161.628Z" fill="#21C2B7"/>
<path fill-rule="evenodd" clip-rule="evenodd" d="M155.013 161C149.674 161.368 144.295 161.241 138.947 161.357L138.306 161.372C138.28 161.372 138.255 161.374 138.23 161.374C138.843 161.612 139.451 161.884 140.058 162.161L140.664 162.439C142.096 163.099 143.554 163.638 145.157 163.521C146.875 163.397 148.493 162.695 150.099 162.129C151.63 161.588 153.395 161.224 155.028 161.461C155.023 161.306 155.019 161.154 155.013 161Z" fill="#C25621"/>
<path fill-rule="evenodd" clip-rule="evenodd" d="M125.425 34.6805C127.185 33.815 129.326 33.7939 131.139 34.5102L131.259 34.5588C133.09 35.319 135.297 37.075 134.819 39.2622C134.382 41.2641 131.243 40.9248 131.084 39.0326C130.071 37.628 127.798 37.3198 126.37 38.213C125.503 38.7549 124.908 39.6673 124.502 40.5875C124.155 41.3712 124.09 42.339 123.558 43.0217C123.541 43.0438 123.506 43.0479 123.481 43.0419C121.894 42.6746 121.857 40.1517 122.128 38.928C122.521 37.1489 123.783 35.4883 125.425 34.6805Z" fill="#C25621"/>
</svg>
